<?xml version="1.0" standalone="no"?>
<!DOCTYPE svg PUBLIC "-//W3C//DTD SVG 1.1//EN" "http://www.w3.org/Graphics/SVG/1.1/DTD/svg11.dtd" >
<svg xmlns="http://www.w3.org/2000/svg">
<metadata></metadata>
<defs>
<font id="morpheusregular" horiz-adv-x="967" >
<font-face units-per-em="2048" ascent="1638" descent="-410" />
<missing-glyph horiz-adv-x="472" />
<glyph horiz-adv-x="2048" />
<glyph horiz-adv-x="2048" />
<glyph unicode="&#xd;" horiz-adv-x="2048" />
<glyph unicode=" "  horiz-adv-x="472" />
<glyph unicode="&#x09;" horiz-adv-x="472" />
<glyph unicode="&#xa0;" horiz-adv-x="472" />
<glyph unicode="!" horiz-adv-x="644" d="M151 47l114 114l113 -114l-113 -113zM175 1189q-1 94 23 145l161 -55q10 -26 22 -87q1 -29 -5 -73l-87 -741h-24l-18 208q-9 104 -42 339q-29 214 -30 264z" />
<glyph unicode="&#x22;" horiz-adv-x="790" d="M140 1142l94 226l-94 86l113 113l114 -113zM491 1130l95 227l-95 85l114 114l113 -114z" />
<glyph unicode="#" d="M0 405l15 71h206l90 327h-206l15 70h207l112 406h116l-112 -406h204l110 406h114l-112 -406h206l-18 -70h-206l-87 -327h206l-21 -71h-203l-110 -405h-117l113 405h-204l-110 -405h-114l109 405h-203zM336 476h204l87 325h-205z" />
<glyph unicode="$" horiz-adv-x="1024" d="M124 348q-1 145 91 255q52 62 208 171q-147 117 -203 191q-83 110 -84 241q-1 147 124 253q100 85 248 100v188l95 136v-319q151 -5 259 -89q118 -93 119 -239q0 -51 -97 -104q-149 -80 -151 -81l-2 2q84 105 86 189q1 105 -68 182q-51 59 -146 73v-593 q233 -160 338 -293q83 -106 84 -250q1 -172 -127 -279q-118 -97 -295 -106v-146l-95 -182v330q-145 16 -253 99q-130 100 -131 271zM301 378q0 -155 79 -248q52 -62 128 -82v663q-7 6 -20 15q-99 -66 -143 -160q-44 -96 -44 -188zM308 1275q0 -107 79 -199q45 -51 121 -109 v531q-76 -9 -132 -63q-68 -64 -68 -160zM603 39q113 6 179 73t67 181q2 117 -72 199q-44 50 -174 149v-602z" />
<glyph unicode="%" horiz-adv-x="1612" d="M118 822q-1 163 126 308q129 149 291 151q55 -1 95 -16q20 -8 39 -24l36 -32q37 -33 143 -34t200 53q49 28 103 80h76l-746 -1335h-92l674 1209q-70 -32 -96 -39q-43 -13 -102 -15q-44 -1 -88 7q-26 5 -47 11q6 -19 10 -42q3 -13 3 -51q0 -173 -108 -326 q-119 -168 -285 -168q-107 0 -172 80q-59 74 -60 183zM264 758q-1 -132 121 -133q133 -1 227 162q82 142 82 286q0 60 -12 76t-46 25q-25 7 -54.5 28.5t-36.5 21.5q-106 0 -198 -184q-82 -163 -83 -282zM869 264q-1 164 125 306q130 146 292 147q208 1 209 -231 q1 -168 -110 -322q-120 -166 -282 -167q-115 0 -177 78q-57 71 -57 189zM1015 186q0 -128 129 -128q114 -1 206 149.5t93 280.5q1 72 -33 117q-38 50 -107 51q-114 1 -207 -183q-81 -160 -81 -287z" />
<glyph unicode="&#x26;" horiz-adv-x="1505" d="M77 274q-1 235 308 413l73 43q-67 151 -68 262q-1 133 80 222q83 93 214 94q113 1 186 -59q78 -64 80 -174q1 -200 -301 -332q125 -228 255 -398q176 216 178 349q1 53 -39 72q-22 11 -85 17v41h417v-41q-63 -8 -94 -22q-50 -25 -87 -92l-50 -90q-50 -92 -88 -147 q-43 -62 -106 -141q45 -54 86 -90q101 -89 210 -89q62 -1 105 30q16 11 156 197q-4 -16 -40 -103q-41 -95 -56 -116q-74 -106 -180 -137q-38 -11 -75 -11q-91 0 -182 57q-54 34 -143 120q-83 -77 -172 -120q-115 -57 -250 -56q-152 0 -241.5 79.5t-90.5 221.5zM259 341 q0 -111 69 -186q71 -78 180 -79q142 -2 274 125q-95 123 -139 191q-37 58 -155 271q-96 -57 -150 -116q-79 -88 -79 -206zM543 1076q-1 -108 77 -273q91 51 141 98q85 81 85 179q0 70 -41.5 117.5t-110.5 47.5q-148 0 -151 -169z" />
<glyph unicode="'" horiz-adv-x="348" d="M72 1142l94 226l-94 86l113 113l114 -113z" />
<glyph unicode="(" horiz-adv-x="644" d="M89 486q-1 328 196 577q120 151 286 245q-77 -95 -200 -267q-113 -198 -114 -531q0 -247 44 -405q47 -173 263 -450q-115 55 -251 218q-224 269 -224 613z" />
<glyph unicode=")" horiz-adv-x="644" d="M69 -345q75 90 195 257q119 204 119 540q0 270 -55 443q-47 150 -252 413q149 -82 277 -251q197 -259 198 -581q0 -271 -145 -503q-74 -119 -199 -223q-82 -67 -138 -95z" />
<glyph unicode="*" d="M128 741q-1 68 95 89q152 33 225 81q-75 44 -228 84q-92 24 -92 81q-1 66 66 68q20 0 126 -89q121 -103 141 -115v25q0 52 -24.5 139.5t-25.5 127.5q-2 76 69 76q66 0 68 -77q1 -28 -24 -130q-26 -105 -27 -165l95 70q14 11 41.5 41.5t55.5 62.5q37 36 74 37 q26 1 46.5 -20t20.5 -51q0 -60 -85 -77q-145 -31 -233 -90l16 -9q75 -44 220 -74q82 -17 83 -82q1 -35 -23.5 -51t-49.5 -17q-27 -1 -113 84q-97 96 -135 115l-13 7v-13q0 -112 27 -187t27 -90q1 -43 -35 -67q-17 -11 -42 -13q-64 -1 -67 78q-1 23 34 128q31 97 20 151 l-3 13q-35 -20 -142 -119q-91 -84 -121 -84q-66 0 -67 62z" />
<glyph unicode="+" horiz-adv-x="1091" d="M58 422l135 133h288v423h132v-423h557l-135 -133h-422v-422h-132v422h-423z" />
<glyph unicode="," horiz-adv-x="537" d="M151 47l114 114l113 -114l-227 -312l95 227z" />
<glyph unicode="-" horiz-adv-x="644" d="M76 376v121h475v-121h-475z" />
<glyph unicode="." horiz-adv-x="329" d="M17 28l113 114l114 -114l-114 -113z" />
<glyph unicode="/" horiz-adv-x="537" d="M4 -32l430 1340h94l-428 -1340h-96z" />
<glyph unicode="0" d="M17 642q0 244 86 419q117 238 357 239q219 1 338 -227q95 -181 95 -424q0 -189 -58 -354q-111 -312 -383 -313q-226 0 -342 230q-93 181 -93 430zM204 618q0 -215 32 -343q60 -239 227 -240q162 -1 216 233q27 121 27 360q0 230 -31 366q-58 255 -219 255 q-160 0 -221 -262q-31 -136 -31 -369z" />
<glyph unicode="1" d="M215 1095v27l346 177h12q3 -4 3 -6.5t1 -11.5v-1138q0 -77 56 -101q28 -11 128 -16v-26h-533v28q105 6 136 24q48 27 48 118v875q0 92 -60 93q-39 1 -137 -43z" />
<glyph unicode="2" d="M58 0v22q311 323 365 389q227 278 228 466q1 123 -65 202q-71 84 -191 84q-129 0 -210 -94q-44 -52 -85 -160l-40 9q83 387 402 386q159 0 258 -101t99 -246q0 -129 -107 -295q-81 -125 -236 -286q-113 -114 -227 -229h433q91 0 128 22t83 106l25 -11l-105 -264h-755z " />
<glyph unicode="3" d="M122 132q-2 70 66 70q46 0 137.5 -53.5t145.5 -53.5q120 0 192 82q68 78 68 201q1 100 -51 178q-87 129 -297 129q-9 0 -24 -1q-8 0 -26 -2l-2 25q146 52 217 109q107 83 108 204q1 95 -64 153t-161 58q-103 0 -183 -77q-43 -41 -94 -129l-29 7q36 139 135 225 q104 90 244 91q143 1 222.5 -79t79.5 -184q0 -92 -65 -168q-34 -41 -114 -98q248 -104 248 -342q1 -214 -169 -340q-154 -113 -374 -113q-208 0 -210 108z" />
<glyph unicode="4" d="M22 322v126l605 851h89v-851h198v-126h-198v-322h-150v322h-544zM100 448h464v656z" />
<glyph unicode="5" d="M61 102q-1 70 84 71q46 1 139 -60.5t137 -61.5q121 -1 200 108q71 99 71 224q0 244 -261 352q-143 60 -269 60q-22 0 -27 1.5t-12 9.5q3 14 6 23l207 452h405q45 0 90 49l15 -13l-74 -175q-6 -13 -58 -14h-365l-81 -165q156 -26 227 -50q220 -76 301 -268q35 -83 35 -177 q1 -217 -156 -356q-149 -132 -370 -133q-242 -1 -244 123z" />
<glyph unicode="6" d="M66 550q0 340 265 573q110 96 301 156q174 53 334 54q-123 -38 -303 -101q-162 -71 -282 -277q-58 -100 -83 -207q59 36 101 52q74 29 152 31q168 1 266 -118q89 -110 88 -283q0 -179 -108 -311q-116 -140 -291 -140q-204 0 -330 191q-110 166 -110 380zM245 486 q0 -163 56 -288q74 -162 217 -161q115 0 171 109q43 84 43 211q1 125 -39 223q-65 162 -225 163q-146 1 -195 -87q-28 -50 -28 -170z" />
<glyph unicode="7" d="M38 996l75 186q11 27 39 99h717v-32l-411 -1267h-124l382 1156h-412q-93 0 -141 -38q-32 -26 -92 -119z" />
<glyph unicode="8" d="M103 290q-1 118 77 212q48 59 173 143q-124 98 -170 159q-69 92 -70 201q-1 141 119 225q106 73 254 73q131 1 226 -69q105 -77 105 -204q1 -111 -91 -198q-50 -47 -171 -116q146 -109 203 -174q95 -112 96 -241q1 -150 -116 -241q-106 -80 -261 -81q-151 -1 -257 79 q-116 87 -117 232zM250 315q0 -118 58 -196q64 -87 179 -87q101 0 160 56t60 156q1 112 -103 212q-31 30 -199 148q-155 -98 -155 -289zM257 1062q0 -90 66 -165q63 -73 176 -143q89 63 123 105q58 71 58 176q1 88 -54.5 151t-168.5 64q-83 1 -141.5 -52.5t-58.5 -135.5z " />
<glyph unicode="9" d="M58 841q0 191 102 321q111 141 296 141q207 0 321 -165.5t114 -370.5q0 -319 -211 -556q-117 -132 -304 -200q-103 -37 -260 -56l-9 37q97 23 163 49q116 45 188 113q186 177 236 410l-33 -24q-69 -51 -165 -73q-50 -11 -90 -11q-160 0 -257 114q-92 109 -91 271z M236 914q0 -370 247 -372q46 0 117 28q78 32 94 68q9 28 9 169q0 169 -48 284q-66 158 -212 158q-115 1 -168 -118q-39 -86 -39 -217z" />
<glyph unicode=":" horiz-adv-x="537" d="M151 47l114 114l113 -114l-113 -113zM151 756l114 113l113 -113l-113 -113z" />
<glyph unicode=";" horiz-adv-x="537" d="M151 47l114 114l113 -114l-227 -312l95 227zM151 756l114 113l113 -113l-113 -113z" />
<glyph unicode="&#x3c;" horiz-adv-x="1091" d="M58 463v52l977 479v-143l-724 -361l724 -362v-144z" />
<glyph unicode="=" horiz-adv-x="1091" d="M58 228v132h977v-132h-977zM58 618v132h977v-132h-977z" />
<glyph unicode="&#x3e;" horiz-adv-x="1091" d="M17 -16v144l800 362l-800 361v143l1054 -479v-52z" />
<glyph unicode="?" horiz-adv-x="859" d="M128 1034q-1 128 107 205q96 68 229 68q147 0 240 -79q98 -83 98 -228q0 -122 -144 -305q-134 -170 -181 -463q-29 119 -29 170q0 9 1 14q18 112 102 300q73 164 74 274q1 98 -52 180q-51 79 -164 79q-56 0 -113 -31q-67 -36 -68 -88q-1 -21 37.5 -64t39.5 -82 q1 -32 -23 -55t-56 -24q-48 -1 -75 42q-24 36 -23 87zM387 -57l114 114l113 -114l-113 -113z" />
<glyph unicode="@" horiz-adv-x="1782" d="M174 595q0 311 247 517q234 196 550 196q251 0 428 -136q194 -149 193 -393q0 -188 -120 -348q-89 -118 -194 -147v-12h-302v24q62 8 81 30q15 21 15 87v83h-356v-83q0 -70 17.5 -90t79.5 -27v-24h-303v24q62 7 79 27.5t17 105.5v89q8 83 18 152q26 166 64 237 q77 144 212 237q128 -99 200 -237q48 -92 82 -398v-80q0 -72 12 -97q22 6 42 10q125 0 212 162q75 138 75 272q0 213 -170 341q-155 117 -373 117q-254 0 -456 -175q-218 -189 -220 -462q0 -253 184 -410q173 -147 436 -147q89 0 197 26q164 41 281 129l35 -54 q-262 -167 -540 -168q-285 0 -495 166q-228 181 -228 456zM716 525h356v14h-356v-14zM716 570h356q-6 119 -35 308q-48 146 -136 245q-95 -92 -150 -245q-37 -106 -35 -308z" />
<glyph unicode="A" horiz-adv-x="1397" d="M36 -9v59q117 14 143.5 47t26.5 182v160q12 148 31 272q45 298 116 428q80 147 163 239.5t225 191.5q133 -104 210.5 -196t154.5 -235q87 -164 147 -715v-145q0 -148 26.5 -181.5t143.5 -47.5v-59h-556v59q113 14 142 46.5t29 154.5v139h-616v-139q0 -123 28 -155 t143 -46v-59h-557zM422 461h616v41h-616v-41zM422 540h616q-12 389 -63 538q-86 255 -234 428q-101 -98 -158 -197q-46 -81 -99 -231q-62 -177 -62 -483v-55z" />
<glyph unicode="B" horiz-adv-x="1105" d="M-42 0v42q119 8 154 48q32 39 33 161v1034q0 127 -35 165t-152 43v44h543q108 0 175 -23q50 -17 127 -67q81 -53 102 -83q35 -49 35 -150q0 -157 -247 -292q111 -84 189 -164q190 -193 190 -334q0 -270 -210 -371q-110 -53 -272 -53h-632zM341 236q0 -70 48 -87 q20 -8 95 -8h17q147 0 248 69q65 44 89 76q40 55 40 142q0 85 -138 230q-109 114 -197 169l-202 -88v-503zM341 865l270 135q132 97 133 206q0 95 -35 136q-22 26 -107 69q-48 25 -65 29q-35 10 -107 11q-59 0 -74 -12.5t-15 -68.5v-505z" />
<glyph unicode="C" horiz-adv-x="1268" d="M48 753q0 337 179 569q187 242 489 242q104 0 216 -38q109 -37 160 -37q54 0 89 50q9 11 16 25h41l-122 -522h-44v23q0 142 -34 228q-71 178 -304 179h-4q-242 0 -363 -254q-94 -198 -94 -469q0 -314 135 -497.5t344 -184.5h3q146 0 274 86q76 51 160 148l36 -44 q-65 -98 -160 -171q-162 -125 -352 -125q-312 0 -496 239q-169 220 -169 553zM710 1564z" />
<glyph unicode="D" horiz-adv-x="1337" d="M-29 0v42q114 15 143 53q26 35 27 156v1034q0 126 -31 162t-139 46v44h521q264 0 446 -104q329 -188 329 -669q0 -380 -237 -595q-74 -66 -157 -103q-151 -66 -365 -66h-537zM337 180q0 -61 30 -81q21 -13 89 -13h4q224 0 370 108q224 166 225 566q0 314 -145 494 q-158 197 -461 198q-63 0 -84 -15q-27 -19 -28 -77v-1180zM512 766l136 136l136 -136l-136 -137z" />
<glyph unicode="E" horiz-adv-x="1182" d="M22 0v42q114 15 143 53q26 35 27 156v1034q0 117 -28 154q-32 43 -142 54v44h1091l-92 -334h-49q5 49 5 86q-1 81 -25 113q-36 46 -238 46h-262q-42 0 -54 -19q-9 -13 -9 -59v-518h478l-180 -92h-298v-575q0 -70 35 -82t220 -12q207 0 293 55q95 60 165 246h54l-88 -392 h-1046z" />
<glyph unicode="F" horiz-adv-x="1042" d="M-1 0v42q121 15 150 64q20 35 20 173v1006q0 117 -27 154q-32 43 -143 54v44h1085l-83 -334h-54q8 56 8 98q0 78 -28 105q-43 42 -235 42h-265q-40 0 -50 -15t-10 -63v-518h487l-157 -92h-330v-509q0 -129 32 -164q29 -32 143 -45v-42h-543z" />
<glyph unicode="G" horiz-adv-x="1397" d="M46 753q0 322 171 556q187 255 499 255q112 0 220 -37.5t157 -37.5q60 0 110 75h43l-117 -488h-44q-14 170 -56 251q-74 144 -285 145h-4q-252 0 -373 -252q-92 -193 -92 -476q0 -266 109 -454q133 -228 380 -228q57 0 136 21q92 26 122 59q17 19 17 58v372 q0 132 -32 165t-138 42v43h493v-43q-69 -4 -96 -29q-39 -35 -39 -144v-5v-457q0 -61 -216 -124q-183 -53 -272 -53q-284 0 -478 198q-214 217 -215 588zM685 1564z" />
<glyph unicode="H" horiz-adv-x="1397" d="M31 0v42q121 15 150 64q20 35 20 173v1006q0 123 -31 161t-139 47v44h538v-44q-111 -9 -143 -53q-28 -38 -28 -155v-452h587v452q0 124 -30.5 161t-139.5 47v44h537v-44q-111 -9 -142 -53q-27 -38 -28 -155v-1034q0 -127 30.5 -161t139.5 -48v-42h-537v42q121 15 150 64 q20 35 20 173v452h-587v-480q0 -126 32 -162q29 -34 139 -47v-42h-538zM396 783h591v24h-590z" />
<glyph unicode="I" horiz-adv-x="644" d="M56 0v42q124 12 156 47.5t32 161.5v1034q0 122 -33 161q-36 42 -155 47v44h572v-44q-117 -6 -152.5 -43t-35.5 -165v-1034q0 -134 35 -167q31 -29 153 -42v-42h-572z" />
<glyph unicode="J" horiz-adv-x="753" d="M20 134q-1 60 28.5 88t55.5 28q25 -10 43 -25q46 -32 60 -73q31 -95 66 -96h1q66 0 66 177v1052q0 122 -30 159q-33 41 -149 49v44h555v-44q-112 -6 -148 -51q-31 -41 -31 -157v-853q0 -186 -68 -307q-85 -151 -257 -152h-4q-74 0 -128 41q-60 45 -60 120z" />
<glyph unicode="K" horiz-adv-x="1397" d="M35 0v42q119 11 147 50t28 187v1006q0 119 -29 156q-32 42 -146 52v44h552v-44q-114 -6 -149 -50q-30 -39 -31 -158v-476q177 180 282 299q214 241 214 313q0 45 -35 58q-31 12 -98 14v44h507v-38q-102 -11 -167 -59q-41 -29 -127 -129l-401 -465q97 -118 187 -221 q215 -250 359 -387q187 -178 550 -455q29 -30 69 -43q46 -14 51 -16q14 -9 51 -10q55 -2 62 -3v-42h-337q-113 86 -214 166q-240 192 -376 318q-203 190 -525 559l-52 -41v-420q0 -129 32 -164q29 -32 143 -45v-42h-547z" />
<glyph unicode="L" horiz-adv-x="1182" d="M22 0v42q114 15 143 53q26 35 27 156v1034q0 117 -28 154q-32 43 -142 54v44h547v-44q-110 -6 -145 -44t-35 -149v-1115q0 -39 11 -61q15 -30 93 -32q22 -1 91 -1h10q248 1 338 51q92 52 177 261h49l-95 -403h-1041z" />
<glyph unicode="M" horiz-adv-x="1617" d="M31 9v24q132 19 167 98q21 47 21 210v944q0 128 -36 169q-34 39 -147 48v25h437l409 -291l425 291h354v-25q-104 -9 -137 -51t-33 -166v-1034q0 -129 33 -168q29 -34 137 -50v-24h-523v24q113 11 144 53.5t31 192.5v1061l-389 -267v-1302l-99 -216l1 1516l-408 272v-1002 q0 -194 48 -254q31 -39 133 -54v-24h-568z" />
<glyph unicode="N" horiz-adv-x="1389" d="M31 9v24q132 19 167 98q21 47 21 210v944q0 128 -36 169q-34 39 -147 48v25h437l536 -216l359 -1v-26q-104 -9 -137 -50q-19 -24 -80 -125v-1340l-145 -246l-1 1609l-587 206v-997q0 -194 48 -254q31 -39 133 -54v-24h-568z" />
<glyph unicode="O" horiz-adv-x="1397" d="M58 767q0 373 194 598q178 204 440 205q305 0 480 -258q154 -227 154 -545q0 -377 -200 -601q-179 -199 -434 -199q-304 0 -479 257q-155 227 -155 543zM277 767q0 -270 76 -455q107 -260 339 -261h2q231 0 336 261q76 186 76 455q0 271 -75 457q-106 261 -339 262h-2 q-231 0 -337 -262q-76 -186 -76 -450v-7zM554 766l136 136l136 -136l-136 -137zM692 1570z" />
<glyph unicode="P" horiz-adv-x="1076" d="M31 0v42q116 13 146 68q20 36 20 169v1006q0 114 -27 152q-31 44 -139 56v44h511q219 0 353 -97q153 -110 153 -319q0 -227 -143 -343q-131 -107 -363 -108q-52 0 -81 1l-72 3v-423q0 -131 33 -164.5t151 -44.5v-42h-542zM389 767q28 -3 68 -6q10 0 32 -1q133 0 209 45 q139 82 139 310q0 333 -361 336q-54 0 -70.5 -13.5t-16.5 -64.5v-606z" />
<glyph unicode="Q" horiz-adv-x="1397" d="M58 767q-1 374 194 598q178 204 440 205q257 0 436 -203q197 -223 198 -600q0 -285 -117 -488q-135 -233 -394 -292q115 -201 283 -288q90 -46 253 -71v-42h-80q-158 0 -279 30q-60 15 -201 103q-40 25 -75.5 77t-70.5 103q-28 36 -70 58q-41 19 -81 37l-24 14 q-155 83 -249 204q-164 211 -163 555zM277 767q0 -270 76 -455q107 -260 339 -261h2q230 0 336 261q76 186 76 455q0 271 -75 457q-106 261 -339 262h-2q-230 0 -337 -262q-76 -186 -76 -450v-7zM554 766l136 136l136 -136l-136 -137z" />
<glyph unicode="R" horiz-adv-x="1113" d="M22 0v42q116 13 146 67q20 37 20 170v1006q0 115 -26 152q-32 44 -140 56v44h536q165 0 278 -51q211 -95 212 -356q0 -324 -350 -388q60 -99 119 -187q138 -209 238 -323q164 -187 516 -455q31 -27 71 -41q44 -15 49 -18q14 -9 51 -10q55 -2 62 -3v-41h-304 q-117 82 -218 160q-244 187 -372 323q-175 186 -418 567l-107 -5v-458q0 -129 32 -164q29 -32 142 -45v-42h-537zM385 795q209 9 298 52q153 75 154 286q0 201 -138 275q-73 39 -195 40h-14q-60 0 -74 -8q-31 -13 -31 -72v-573z" />
<glyph unicode="S" horiz-adv-x="1024" d="M124 351q0 143 91 252q52 62 208 171q-147 117 -203 191q-83 110 -84 241v2q0 166 144 267q129 89 303 89q158 0 271 -83q126 -93 127 -245q0 -51 -97 -104q-149 -80 -151 -81l-2 2q84 105 86 189q1 105 -68 182q-65 75 -200 77h-3q-97 1 -167 -63q-71 -64 -71 -163 q0 -107 79 -199q64 -74 212 -170q225 -146 342 -295q83 -106 84 -250v-3q0 -179 -139 -285q-128 -97 -313 -98q-181 0 -308 94q-141 105 -141 282zM301 378q0 -142 69 -235q77 -104 214 -104q121 0 192 67t73 187v6q0 114 -72 193q-62 69 -289 234q-99 -66 -143 -160 q-44 -96 -44 -188z" />
<glyph unicode="T" horiz-adv-x="1182" d="M44 1442l74 289h46q-2 -22 -1 -38q0 -48 17.5 -65t34.5 -33q37 -56 200 -56h6l716 -2l-86 -316h-47q4 32 3 56q0 46 -15 70l-32 38q-42 55 -198 55h-6h-108l10 -1161q1 -142 24 -177q31 -48 159 -60v-42h-564v42q122 13 153 42q35 33 35 160v7l-9 1189z" />
<glyph unicode="U" horiz-adv-x="1397" d="M17 1501v41h538v-41q-110 -13 -139 -47q-32 -37 -32 -163v-279v-40q0 -332 63 -511q54 -153 102 -236q59 -100 165 -202q155 178 241 438q55 163 64 554v276q0 126 -32 163q-29 34 -139 47v41h537v-41q-121 -15 -150 -64q-20 -35 -20 -173v-145q-17 -160 -37 -289 q-50 -311 -109 -422q-76 -144 -152.5 -234t-204.5 -189q-136 95 -217.5 186t-160.5 237q-132 243 -147 696v160q0 138 -20 173q-29 49 -150 64z" />
<glyph unicode="V" horiz-adv-x="1479" d="M33 1519v39h545v-43q-73 0 -105 -12q-49 -19 -49 -76q0 -44 83 -253l320 -820l291 888q17 52 29 99q10 39 10 68q0 65 -51 90q-23 11 -99 16v43h419v-39q-68 -13 -96 -41q-46 -44 -93 -180l-453 -1325h-31l-505 1294q-63 163 -103 204q-37 39 -112 48z" />
<glyph unicode="W" horiz-adv-x="2268" d="M31 1503v41h538v-41q-110 -13 -139 -48q-32 -37 -32 -162v-279v-40q0 -332 63 -511q54 -153 102 -236q59 -100 165 -202q155 179 242 438q54 161 62 534q-8 72 -9 118l-22 66q-29 34 -139 48v41h538v-41q-113 -14 -142 -50q-17 -22 -28 -58q0 -2 -1 -10v-97v-40 q0 -332 63 -511q54 -153 102 -236q59 -100 164 -202q155 178 242 438q55 164 64 554v276q0 126 -32 162q-29 34 -139 48v41h537v-41q-121 -15 -150 -65q-20 -35 -20 -173v-144q-17 -160 -38 -289q-50 -311 -108 -422q-76 -144 -152.5 -234t-204.5 -189q-136 95 -217.5 186 t-160.5 237q-26 47 -52 117q-21 -73 -44 -117q-76 -144 -152.5 -234t-204.5 -189q-136 95 -217.5 186t-160.5 237q-132 243 -147 696v159q0 138 -20 173q-29 49 -150 65z" />
<glyph unicode="X" horiz-adv-x="1397" d="M31 4v41q113 14 141.5 50t28.5 131v8q43 142 109 269q161 304 416 482q307 -237 504 -766v7q0 -95 28 -130.5t142 -50.5v-41h-538v41q110 13 139 48q22 25 24 31q8 19 8 74v125q-25 108 -63 209q-94 244 -242 415q-289 -278 -330 -621v-128q0 -56 7 -74q3 -7 25 -31 q29 -34 139 -48v-41h-538zM31 1503v41h538v-41q-110 -13 -139 -48q-22 -25 -25 -31q-7 -17 -7 -62v-12v-128q11 -100 48 -198q87 -235 282 -423q221 254 305 624v125q0 56 -8 74q-3 7 -24 31q-29 34 -139 48v41h538v-41q-113 -14 -141.5 -50t-28.5 -131v7 q-58 -154 -128 -288q-169 -318 -376 -478q-379 264 -525 751v8q0 95 -28 131t-142 50z" />
<glyph unicode="Y" horiz-adv-x="1397" d="M31 1503v41h538v-41q-110 -13 -139 -48q-22 -25 -25 -31q-7 -17 -7 -62v-12v-128v-10q0 -88 63 -267q43 -123 102 -189q82 -77 165 -155q73 79 144 158q59 72 98 186q55 164 63 280v125q0 56 -8 74q-3 7 -24 31q-29 34 -139 48v41h538v-41q-113 -14 -141.5 -50 t-28.5 -131v7q-17 -79 -38 -152q-50 -174 -109 -285q-63 -119 -152 -186q-102 -72 -205 -143q-109 70 -218 139q-95 67 -160 190q-132 243 -147 422v8q0 95 -28 131t-142 50zM433 -25q133 9 167 56q27 39 28 182v427l104 310l88 -317l5 -448q2 -136 37 -168.5t162 -41.5v-41 h-591v41z" />
<glyph unicode="Z" horiz-adv-x="1182" d="M13 0v26l849 1422h-446q-78 0 -129 -25q-42 -20 -95 -75q-57 -59 -123 -208h-50l145 397h956v-27l-840 -1421h497q170 0 247 96q47 60 86 223h46l-47 -408h-1096zM593 1537z" />
<glyph unicode="[" horiz-adv-x="644" d="M170 -305v1586h407v-47h-172q-57 0 -76 -36q-11 -20 -11 -52v-1301q0 -42 12 -64q20 -37 82 -37h165v-49h-407z" />
<glyph unicode="\" horiz-adv-x="537" d="M-60 1308h129l528 -1308h-127z" />
<glyph unicode="]" horiz-adv-x="644" d="M64 -258h173q87 0 87 87v1302q0 44 -18.5 72t-74.5 28h-167v50h409v-1586h-409v47z" />
<glyph unicode="^" horiz-adv-x="908" d="M62 490l365 818h52l365 -818h-130l-259 612l-263 -612h-130z" />
<glyph unicode="_" d="M0 -146h967v-96h-967v96z" />
<glyph unicode="`" horiz-adv-x="644" d="M-19 1251q0 60 65 63q38 1 85 -47l285 -286h-79l-297 188q-59 37 -59 82zM263 886z" />
<glyph unicode="a" horiz-adv-x="1118" d="M17 -8v48q95 11 115.5 37.5t20.5 145.5v128q9 118 25 217q37 239 93 343q113 207 310 345q185 -144 292 -345q70 -131 118 -572v-116q0 -119 21 -145.5t115 -37.5v-48h-445v48q90 11 113 37.5t23 123.5v111h-492v-111q0 -97 23 -123.5t114 -37.5v-48h-446zM326 369h492 v33h-492v-33zM326 432h492q-6 302 -49 431q-68 204 -188 341q-80 -77 -125 -157q-37 -63 -80 -184q-51 -142 -51 -379q0 -25 1 -52z" />
<glyph unicode="b" horiz-adv-x="884" d="M-33 0v33q95 6 123 39q25 29 25 122v7v827q0 102 -27.5 132.5t-120.5 34.5v35h434q132 0 242 -72q65 -43 82 -67q27 -39 27 -119q0 -126 -198 -234q302 -231 303 -396q0 -219 -167 -299q-89 -43 -218 -43h-505zM273 189q0 -56 39 -70q18 -7 89 -7q118 0 198 56 q53 36 71 62q32 43 32 112q0 68 -110 183q-86 91 -157 137l-162 -70v-403zM273 692l217 108q31 23 52 47q53 60 53 118q0 76 -28 109q-17 20 -85 54q-39 20 -53 24q-27 9 -85 9q-47 0 -59 -10.5t-12 -54.5v-404z" />
<glyph unicode="c" horiz-adv-x="1032" d="M39 603q0 270 142 455q149 193 390 193h2q85 0 173 -30q85 -29 127 -29q54 0 85 59h32l-97 -417h-36v22q0 110 -27 178q-57 143 -242 144h-2q-196 0 -292 -204q-76 -157 -76 -375q0 -212 85 -361q103 -183 299 -184h3q116 0 218 69q60 41 128 117l29 -34 q-51 -78 -128 -137q-130 -100 -282 -100q-250 0 -396 192q-135 176 -135 442zM568 1251z" />
<glyph unicode="d" horiz-adv-x="929" d="M-20 1426q166 -7 337 -61q189 -61 297 -158q278 -246 278 -602q0 -223 -115 -398q-132 -199 -345 -199q-184 0 -300.5 145.5t-116.5 324.5q1 202 109 312q107 108 256 108h5q82 -1 157 -32q49 -20 118 -62q-32 132 -92 233q-66 113 -138 183.5t-162 109.5q-53 23 -288 96 zM188 402q0 -139 55.5 -241t176.5 -102q153 0 232 172q61 131 61 306q0 127 -31 181q-53 96 -210 96q-172 -2 -241 -175q-43 -107 -43 -237z" />
<glyph unicode="e" horiz-adv-x="946" d="M17 0v33q91 12 115 44q21 28 21 124v827q0 95 -22 124q-25 34 -114 43v35h873l-73 -268h-40q5 40 5 70q0 65 -20 90q-30 37 -190 37h-211q-33 0 -43 -16q-7 -10 -6 -47v-415h361l-123 -73h-238v-460q0 -57 27.5 -65.5t175.5 -9.5h7q158 0 227 43q76 47 133 198h42 l-70 -314h-837z" />
<glyph unicode="f" horiz-adv-x="860" d="M17 0v33q96 12 120 52q16 28 16 138v805q0 95 -22 124q-25 34 -114 43v35h869l-68 -268h-42q6 44 6 77q0 64 -22 86q-35 34 -188 34h-212q-29 0 -41 -13q-8 -13 -7 -50v-415h365l-142 -73h-223v-407q0 -97 23.5 -127.5t116.5 -40.5v-33h-435z" />
<glyph unicode="g" horiz-adv-x="1118" d="M25 603q0 258 137 444q150 204 398 204q92 0 178 -30q83 -29 99 -29q49 0 71 59h34l13 -391h-35q-49 138 -99 201q-90 115 -238 117h-2q-202 0 -299 -203q-74 -153 -74 -380q0 -213 87 -362q106 -183 303 -183q30 0 66.5 6t71.5 21q55 23 68.5 37.5t13.5 46.5v296 q0 107 -25 133t-111 33v35h395v-35q-56 -3 -76 -23q-32 -30 -32 -119v-366q0 -49 -172 -99q-143 -42 -215 -42h-3q-227 0 -382 158q-171 175 -172 471zM536 1251z" />
<glyph unicode="h" horiz-adv-x="1118" d="M25 0v33q96 12 120 52q16 28 16 138v805q0 95 -22 124q-26 34 -114 43v35h431v-35q-89 -8 -115 -43q-23 -29 -23 -124v-362h470v362q0 95 -22 124q-26 34 -114 43v35h430v-35q-89 -8 -114 -43q-22 -29 -22 -124v-827q0 -102 23.5 -129.5t112.5 -38.5v-33h-430v33 q96 12 120 52q16 28 16 138v361h-470v-383q0 -101 25 -129.5t113 -38.5v-33h-431zM317 627h472v18h-471z" />
<glyph unicode="i" horiz-adv-x="516" d="M44 0v33q100 10 125.5 37.5t25.5 130.5v1016q29 -52 55 -90q64 -92 103 -99v-827q0 -112 31 -137q29 -22 119 -31v-33h-459zM141 1482l109 109l108 -109l-108 -109z" />
<glyph unicode="j" horiz-adv-x="602" d="M16 110q0 89 73 89q47 0 77 -77t52 -78h1q53 0 53 143v1049q14 -36 59 -111q30 -41 98 -97v-682q0 -149 -54 -246q-68 -121 -206 -122h-4q-59 0 -102 33q-47 37 -47 99zM235 1482l109 109l109 -109l-109 -109z" />
<glyph unicode="k" horiz-adv-x="1118" d="M28 0v33q95 10 117.5 41t22.5 149v805q0 98 -26 130q-25 28 -114 37v35h442v-35q-92 -5 -119 -40q-25 -31 -25 -127v-381q136 137 226 239q170 193 170 249q0 57 -106 60v35h406v-31q-82 -9 -135 -47q-32 -24 -101 -103l-320 -372q77 -95 149 -178q173 -198 288 -308 q150 -143 439 -365q24 -24 56 -34q38 -11 40 -13q11 -8 41 -9q43 -1 50 -2v-33h-270q-148 112 -472 388q-163 151 -419 446l-42 -32v-336q0 -97 23.5 -127.5t116.5 -40.5v-33h-438z" />
<glyph unicode="l" horiz-adv-x="778" d="M17 0v33q91 12 115 44q21 28 21 124v827q0 95 -22 124q-25 34 -114 43v35h439v-35q-88 -5 -116 -35.5t-28 -118.5v-893q0 -33 8.5 -49t37.5 -22q20 -4 82 -4h27h33q59 0 63 3q12 15 25 30q44 40 117 133h40l-68 -239h-660z" />
<glyph unicode="m" horiz-adv-x="1293" d="M25 8v18q94 14 122.5 56t28.5 191v755q0 104 -30 135q-24 30 -118 38v21h350l327 -233l340 233h284v-21q-84 -7 -110 -40.5t-26 -132.5v-827q0 -101 26 -135q26 -27 110 -40v-18h-419v18q90 9 115 42.5t25 154.5v849l-311 -214v-1041l-79 -173l1 1212l-326 219v-802 q0 -156 37 -203q25 -31 107 -44v-18h-454z" />
<glyph unicode="n" horiz-adv-x="1111" d="M25 8v18q94 14 122.5 56t28.5 191v765q0 104 -30 135q-24 30 -118 38v20h351l452 -173h202v-21q-84 -7 -110 -40l-2 -101v-1080l-117 -198l-1 1287l-468 175v-807q0 -156 37 -203q25 -31 107 -44v-18h-454z" />
<glyph unicode="o" horiz-adv-x="1118" d="M46 614q0 298 156 478q143 164 352 164q243 0 384 -206q122 -182 122 -436q0 -302 -159 -481q-142 -159 -344 -159h-3q-244 0 -384 205q-124 181 -124 435zM221 614q0 -216 62 -364q85 -208 271 -209h2q185 0 268 209q61 148 61 364t-61 365q-84 209 -270 210h-2 q-184 0 -269 -210q-61 -150 -62 -365zM443 612l109 109l109 -109l-109 -108zM554 1256z" />
<glyph unicode="p" horiz-adv-x="860" d="M25 0v33q93 10 116 54q16 29 16 136v805q0 92 -21 122q-26 36 -111 45v35h408q176 0 282 -77q123 -88 123 -256q0 -190 -115 -275t-290 -86q-21 0 -61.5 1.5t-59.5 1.5v-338q0 -100 24.5 -129t121.5 -39v-33h-433zM312 614l54 -5q17 0 25 -1q105 0 168 37q112 66 111 247 q0 266 -289 269q-43 0 -56 -11t-13 -52v-484z" />
<glyph unicode="q" horiz-adv-x="1118" d="M46 614q0 298 156 478q143 164 352 164q206 0 349 -163q157 -179 157 -475q0 -233 -93 -394q-107 -187 -315 -234q91 -160 227 -231q74 -38 201 -57v-33h-63q-129 0 -223 24q-52 13 -161 82q-32 20 -61 61.5t-56 82.5q-34 43 -121 76l-19 11q-127 70 -199 163 q-130 167 -131 445zM221 614q0 -216 62 -364q85 -208 271 -209h2q184 0 268 209q60 148 61 364q0 216 -61 365q-84 209 -270 210h-2q-183 0 -269 -210q-61 -150 -62 -365zM443 612l109 109l109 -109l-109 -108z" />
<glyph unicode="r" horiz-adv-x="889" d="M-63 0v33q94 10 117 54q16 29 16 136v805q0 92 -22 122q-26 36 -111 45v35h429q133 0 223 -41q169 -76 169 -287q0 -256 -280 -308q49 -79 95 -150q112 -167 191 -258q132 -150 413 -365q26 -22 56 -32q35 -11 39 -14q11 -8 41 -8q44 -2 50 -3v-33h-243q-94 66 -175 128 q-196 150 -298 259q-140 148 -333 454l-86 -5v-366q0 -112 31 -137q27 -22 109 -31v-33h-431zM228 636q167 8 238 42q124 60 124 231q0 159 -111 218q-59 31 -157 32h-14q-45 0 -56 -6q-25 -11 -24 -59v-458z" />
<glyph unicode="s" horiz-adv-x="819" d="M88 278q0 121 76 212q45 55 155 129q-105 84 -152 147q-70 94 -70 201q0 137 119 221q105 74 251 75h4q128 0 221 -70q104 -78 104 -204q0 -43 -85 -90q-114 -63 -124 -73l-17 15q72 89 72 155q0 90 -55 142q-55 50 -148 51h-3q-75 -1 -126 -47q-52 -48 -52 -122 q0 -82 60 -151q52 -60 168 -135q179 -115 276 -239q70 -89 70 -209q0 -132 -103 -226q-100 -91 -271 -91h-4q-147 0 -250 78q-115 86 -116 231zM251 302q0 -120 59.5 -189.5t156.5 -69.5q99 -1 149 53q51 55 51 140q0 103 -95 194q-28 26 -183 136q-138 -91 -138 -264z" />
<glyph unicode="t" horiz-adv-x="832" d="M-23 885l59 231h38q-2 -18 -2 -32q0 -38 14 -51.5t27 -25.5q26 -40 165 -46l45 -2l-2 638q9 -116 66 -217q24 -43 81 -109l2 -312l382 1l-70 -252h-38q3 26 3 46q0 36 -12 54q-13 15 -25 30q-35 44 -164 45h-76v-660q0 -113 19 -142q25 -38 127 -48v-33h-452v33 q96 10 123 34q29 27 29 134l-8 682z" />
<glyph unicode="u" horiz-adv-x="1001" d="M-57 1200v33h431v-33q-88 -10 -112.5 -38.5t-24.5 -129.5v-223v-30q0 -266 50 -410q43 -122 83 -189q47 -80 131 -162q124 142 194 351q43 130 50 443v220q0 101 -24.5 129.5t-111.5 38.5v33h430v-33q-97 -12 -120 -52q-16 -27 -16 -138v-115q-14 -128 -31 -232 q-40 -249 -87 -337q-106 -200 -286 -338q-191 133 -302 338q-106 195 -118 557v127q0 111 -16 138q-23 40 -120 52z" />
<glyph unicode="v" horiz-adv-x="1183" d="M41 1215v32h436v-35q-60 0 -85 -10q-39 -14 -39 -60q0 -34 67 -203l256 -655l232 709q11 34 29 102q3 15 2 30q1 55 -40 74q-19 9 -79 13v35h335v-32q-54 -11 -77 -33q-38 -36 -74 -144l-362 -1060h-25l-404 1036q-42 106 -58 130q-42 62 -114 71z" />
<glyph unicode="w" horiz-adv-x="1814" d="M25 1202v33h431v-33q-88 -10 -113 -38.5t-25 -129.5v-223v-30q0 -266 51 -411q43 -122 82 -189q47 -80 131 -161q124 142 194 350q42 124 50 428q-6 54 -8 94l-18 53q-23 27 -110 38v33h430v-33q-91 -11 -113 -40q-14 -18 -23 -46q0 -2 -1 -8v-78v-30q0 -266 51 -411 q43 -123 81 -189q47 -81 132 -161q124 142 193 350q43 130 51 444v220q0 99 -26 130q-24 27 -111 38v33h430v-33q-97 -12 -120 -52q-16 -27 -16 -138v-115q-14 -128 -30 -232q-40 -249 -87 -337q-106 -199 -285 -338q-192 133 -303 338q-21 41 -41 94q-17 -59 -35 -94 q-106 -199 -287 -338q-191 133 -302 338q-106 195 -117 557v127q0 111 -16 138q-23 40 -120 52z" />
<glyph unicode="x" horiz-adv-x="1118" d="M25 3v33q91 11 113.5 40.5t22.5 104.5v6q34 113 88 216q128 243 331 385q246 -190 404 -612v5q0 -75 22.5 -104.5t113.5 -40.5v-33h-430v33q88 11 112 39t24 84v100q-20 86 -50 167q-75 195 -194 332q-232 -223 -264 -497v-102q0 -56 26 -85q23 -26 112 -38v-33h-431z M25 1202v33h431v-33q-88 -10 -113 -38.5t-25 -84.5v-102q9 -80 38 -159q70 -188 226 -337q178 203 244 499v99q0 56 -24.5 84.5t-111.5 38.5v33h430v-33q-91 -11 -113.5 -39.5t-22.5 -104.5v5q-46 -123 -103 -229q-135 -255 -301 -383q-302 212 -419 600v7q0 77 -23 105 t-113 39z" />
<glyph unicode="y" horiz-adv-x="980" d="M-67 1202v33h431v-33q-88 -10 -112.5 -38.5t-24.5 -84.5v-102v-8q0 -69 50 -213q34 -97 82 -151q65 -61 131 -124q59 63 117 126q47 58 77 149q43 130 50 224v99q0 56 -24.5 84.5t-111.5 38.5v33h430v-33q-91 -11 -113.5 -39.5t-22.5 -104.5v5q-14 -63 -30 -122 q-40 -139 -87 -227q-50 -95 -122 -149q-82 -58 -164 -114q-87 56 -174 110q-76 54 -129 153q-106 195 -117 337v7q0 77 -22.5 105t-113.5 39zM254 -20q107 8 134 45q22 30 22 145v342l84 248l70 -253l4 -359q1 -110 29.5 -135.5t130.5 -32.5v-33h-474v33z" />
<glyph unicode="z" horiz-adv-x="946" d="M10 0v21l680 1138h-357q-102 0 -180 -81q-44 -46 -98 -166h-40l116 318h765v-22l-672 -1137h398q134 0 196 77q39 48 70 179h36l-38 -327h-876zM474 1230z" />
<glyph unicode="{" horiz-adv-x="929" d="M120 448v69q113 11 175 51q92 59 92 193l2 260q1 175 137 238q78 36 282 49v-43q-102 -11 -186.5 -66t-84.5 -182v-232q0 -153 -91 -218q-60 -44 -236 -79l-33 -7v-5q357 -26 360 -279l3 -267q1 -118 95 -176q53 -32 173 -56v-43q-417 0 -419 285l-2 291q-1 110 -98 165 q-54 30 -169 52z" />
<glyph unicode="|" horiz-adv-x="387" d="M128 0v1321h131v-1321h-131z" />
<glyph unicode="}" horiz-adv-x="929" d="M120 -302q117 23 173 56q95 59 96 176l2 267q2 249 361 279v5q-204 40 -265 81q-95 64 -96 223v232q0 134 -112 200q-62 37 -159 48v43q189 0 286 -50q132 -68 134 -237l2 -260q1 -137 99 -197q54 -33 167 -47v-69q-117 -22 -171 -53q-95 -56 -95 -164l-2 -291 q-2 -282 -420 -285v43z" />
<glyph unicode="~" horiz-adv-x="1047" d="M26 309q30 131 71 201q69 119 187 119q76 0 255 -77t247 -78q69 -1 118 66q26 36 66 132h49q-81 -323 -267 -325q-82 -1 -263.5 79t-234.5 80q-77 0 -131 -83q-27 -42 -52 -114h-45z" />
<glyph unicode="&#xa1;" horiz-adv-x="644" d="M209 -328q-1 28 5 73l87 741h24l18 -208q9 -104 42 -339q29 -214 30 -264q1 -94 -23 -146l-161 56q-10 26 -22 87zM212 817l113 113l114 -113l-114 -114z" />
<glyph unicode="&#xa2;" horiz-adv-x="722" d="M27 422q0 190 100 318q106 136 274 136q21 0 31 -1l50 272l38 -7l-50 -271q19 -3 52 -15q60 -20 89 -19q36 0 60 41h23l-69 -293h-25q2 90 -19 141q-30 74 -121 94l-140 -757q46 -23 102 -23q82 -1 155 48q42 27 88 82l21 -23q-35 -55 -90 -97q-90 -69 -197 -70 q-45 0 -92 11l-61 -333l-38 8l62 336q-87 33 -148 112q-95 123 -95 310zM153 420q0 -189 88 -295q20 -24 44 -42l137 741h-11q-137 0 -206 -142q-52 -110 -52 -262zM398 876z" />
<glyph unicode="&#xa3;" d="M21 112q-1 66 59 104q52 34 121 34q41 0 90 -9q0 19 1 24q0 9 1 15q0 56 -9 144q-8 74 -27 209h-213l76 88h129q-9 109 -10 165q0 180 97 296q104 126 278 126q93 0 166 -43q86 -51 87 -138q1 -41 -24.5 -70.5t-65.5 -30.5q-28 -1 -51 15q-40 27 -36 92l2 31 q6 89 -110 90q-114 1 -157 -118q-23 -63 -22 -167q0 -89 19 -248h318l-76 -88h-234q0 -16 1 -42q1 -32 1 -43q1 -68 -13 -172q-13 -98 -34 -161q43 -20 107 -39q95 -28 176 -29q126 0 218 87l32 30q4 4 8.5 6t11.5 5l12 -8q-12 -115 -117 -201q-100 -80 -218 -81 q-112 -1 -270 120q-62 -71 -90 -91q-45 -32 -104 -33q-58 -1 -93.5 36t-36.5 95zM73 112q-1 -20 9 -38q20 -35 69 -36q105 -1 122 114q-35 27 -111 29q-87 2 -89 -69z" />
<glyph unicode="&#xa4;" d="M62 301l112 113q-81 104 -82 224q-1 77 28 145q16 38 54 90l-112 112l50 50l114 -108q105 78 230 79q85 0 153 -34q35 -18 73 -50l113 113l54 -50l-115 -112q35 -45 53 -84q29 -62 30 -153q1 -115 -83 -222l115 -113l-54 -52l-113 111q-99 -77 -227 -78q-88 -1 -154 30 q-39 18 -75 50l-114 -113zM201 643q0 -107 73.5 -180.5t180.5 -73.5q106 0 179 74t74 180q1 105 -73.5 179.5t-179.5 75.5t-179.5 -74t-74.5 -181z" />
<glyph unicode="&#xa5;" horiz-adv-x="980" d="M-67 1202v33h431v-33q-88 -10 -112.5 -38.5t-24.5 -84.5v-102q-3 -69 50 -221q41 -117 124 -193h26q19 53 67 197l54 -197h19q80 84 117 193q43 130 50 224v99q0 56 -24.5 84.5t-111.5 38.5v33h430v-33q-91 -11 -113.5 -39.5t-22.5 -104.5v5q-14 -63 -30 -122 q-40 -139 -87 -227q-50 -95 -124 -151h279v-38h-334q-10 -8 -32 -20l1 -101h365v-37h-365l3 -219q2 -110 30 -135.5t130 -32.5v-33h-474v33q107 8 134 45q23 31 22 145q0 197 -1 197h-352v37h353v98q-14 9 -39 23h-314v38h256q-75 55 -127 151q-106 195 -117 337v7 q0 77 -22.5 105t-113.5 39z" />
<glyph unicode="&#xa6;" horiz-adv-x="387" d="M128 0v510h131v-510h-131zM128 811v510h131v-510h-131z" />
<glyph unicode="&#xa7;" d="M138 552q0 99 66.5 166.5t165.5 69.5q5 0 14 -1q5 0 17 -2q-95 77 -132 126q-56 76 -56 168q-1 93 79 163t196 71q93 1 169 -56q31 -24 31 -52q0 -42 -57 -82q-52 -37 -89 -37q-19 0 -19 14q0 22 50 72q34 34 34 41q0 29 -53 46q-40 13 -77 13q-155 0 -157 -140 q-1 -56 49 -114q26 -32 104 -96l152 -124q81 -66 122 -120q77 -100 76 -195q0 -113 -69 -181q-60 -58 -156 -57q-14 0 -29 1q91 -82 126 -132q52 -74 53 -158q1 -111 -87 -179q-79 -60 -194 -61q-105 -1 -185.5 54.5t-80.5 134.5q0 40 38 68t81 28q76 0 78 -75 q1 -34 -31 -63l-20 -18l-11 -11q-2 -5 -3 -13q0 -32 56 -52q42 -14 84 -15q45 -1 88 21q75 37 76 129q1 75 -74 148q-23 22 -136 109l-103 78q-186 142 -186 313zM235 614q-1 -86 131 -202q74 -65 101 -84q62 -42 121 -43q60 -1 97 38t38 99q1 86 -134 206 q-132 117 -221 118q-55 1 -93.5 -38t-39.5 -94z" />
<glyph unicode="&#xa8;" horiz-adv-x="644" d="M-18 1354q-1 40 27 68.5t68 28.5t68.5 -28.5t28.5 -68.5q0 -41 -28.5 -68.5t-68.5 -27.5q-41 0 -67.5 28t-27.5 68zM367 1354q0 40 28 68.5t68 28.5t68 -28.5t28 -68.5q0 -41 -28 -68.5t-68 -27.5t-68 28.5t-28 67.5z" />
<glyph unicode="&#xa9;" horiz-adv-x="1470" d="M62 643q0 279 194.5 472t471.5 193q279 0 472 -194t193 -471q0 -279 -194 -472.5t-471 -193.5q-279 0 -472.5 194.5t-193.5 471.5zM134 643q0 -248 173.5 -421t420.5 -173q248 0 420.5 173.5t172.5 420.5q0 248 -173.5 420.5t-419.5 172.5q-248 0 -421 -173.5 t-173 -419.5zM334 613q0 188 100 318q106 136 274 136q58 0 121 -22q58 -20 89 -20q16 0 32 9.5t27 32.5h23l-68 -293h-26q3 88 -19 141q-41 99 -169 100q-137 1 -206 -142q-52 -110 -53 -262q-1 -147 60 -253q73 -129 210 -129q81 -1 154 48q41 27 89 82l20 -23 q-36 -56 -88 -97q-91 -69 -198 -70q-179 -1 -281 137q-92 124 -91 307zM704 1067z" />
<glyph unicode="&#xaa;" horiz-adv-x="533" d="M43 1002v17q36 5 44 18q7 10 7 51v48q2 42 6 77q12 86 38 133q43 78 116 129q69 -54 109 -129q26 -49 44 -215v-43q0 -41 7 -51q9 -13 44 -18v-17h-167v17q33 4 42.5 14t9.5 46v42h-185v-42q0 -36 9.5 -46t42.5 -14v-17h-167zM158 1143h185v12h-185v-12zM158 1166h185 q-2 59 -19 162q-26 77 -70 127q-49 -47 -77 -127q-19 -54 -19 -162z" />
<glyph unicode="&#xab;" d="M82 434l43 42q9 7 54 48q38 34 106 95q77 70 141 134q19 20 54 52q7 5 12 6q20 0 20 -21q0 -27 -65 -116q-35 -48 -185 -235q80 -102 137 -177q111 -148 111 -171q0 -9 -5.5 -15.5t-14.5 -6.5q-10 0 -22 15q-9 9 -37 35l-3 3l-27 27l-211 193zM452 434q36 36 96 90 q42 36 112 98q72 66 136 131q19 20 54 52q7 5 12 6q20 0 20 -21q0 -26 -65 -114q-44 -61 -186 -237q80 -102 137 -177q111 -148 112 -171q0 -9 -5.5 -15.5t-14.5 -6.5q-11 0 -23 15q-9 9 -37 35l-2 3q-12 12 -28 27l-211 193z" />
<glyph unicode="&#xac;" horiz-adv-x="1091" d="M58 618v132h977v-522h-135v390h-842z" />
<glyph unicode="&#xad;" horiz-adv-x="1091" d="M58 422v133h977v-133h-977z" />
<glyph unicode="&#xae;" horiz-adv-x="1470" d="M62 643q0 279 194.5 472t471.5 193q279 0 472 -194t193 -471q0 -276 -195 -471l-13 -13q50 -41 95 -74q17 -17 38 -24q27 -9 29 -9q21 -2 63 -8v-22h-170q-26 17 -116 85q-170 -129 -396 -130q-279 0 -472.5 194.5t-193.5 471.5zM134 643q0 -248 173.5 -421t420.5 -173 q191 0 336 104q-98 80 -155 140q-97 104 -233 317l-60 -3v-256q0 -68 15 -88q17 -24 83 -30v-23h-302v23q65 6 82 37q11 21 12 96v564q0 65 -17.5 88t-76.5 28v25h301q93 0 156 -29q117 -53 118 -199q1 -97 -53 -149.5t-143 -67.5q56 -92 199 -286q51 -58 139 -134 q7 6 18 17q173 173 174 420q0 248 -173.5 420.5t-419.5 172.5q-248 0 -421 -173.5t-173 -419.5zM616 655q119 5 167 29q86 42 86 160q1 112 -77 154q-41 22 -110 23q-43 1 -56 -8q-9 -9 -10 -37v-321z" />
<glyph unicode="&#xaf;" horiz-adv-x="644" d="M13 1570v103h605v-103h-605z" />
<glyph unicode="&#xb0;" horiz-adv-x="774" d="M82 1024q-1 115 80 194.5t196 80.5t194.5 -79.5t80.5 -195.5t-79.5 -195t-195.5 -81q-116 -1 -195.5 79t-80.5 197zM177 1024q-1 -76 51.5 -128.5t129.5 -53.5q76 -1 128.5 52t53.5 130q1 73 -53 128q-52 52 -129 53q-76 1 -128 -52t-53 -129z" />
<glyph unicode="&#xb1;" horiz-adv-x="1062" d="M44 0v128h977v-128h-977zM44 526l136 125h288v327h132v-327h556l-135 -125h-421v-320h-132v320h-424z" />
<glyph unicode="&#xb2;" horiz-adv-x="580" d="M7 1061q20 105 90 171t175 67q94 1 162.5 -59.5t69.5 -153.5q1 -91 -50 -173q-29 -48 -199 -213l-114 -111q9 0 88 -1l88 -1q115 -1 130 3q51 11 93 77l21 -9l-62 -159h-490v20q228 219 238 231q148 165 149 283q1 71 -48.5 121.5t-120.5 51.5q-76 1 -126 -51 q-26 -27 -61 -102z" />
<glyph unicode="&#xb3;" horiz-adv-x="580" d="M21 559q0 42 45 42q21 1 87.5 -29t105.5 -30q78 -1 119 56.5t41 112.5q2 182 -234 182h-26v23q121 23 174 91q32 42 33 90q1 127 -142 129q-68 1 -121 -48q-27 -26 -54 -76l-24 4q18 86 88 140q68 53 157 53q79 0 134 -39q61 -43 62 -120q0 -98 -113 -164 q154 -54 155 -212q1 -136 -108 -210q-95 -64 -237 -65q-44 0 -86 14q-56 19 -56 56z" />
<glyph unicode="&#xb4;" horiz-adv-x="644" d="M125 981l284 286q45 46 86 48q26 1 45 -18.5t20 -45.5q1 -43 -59 -82l-298 -188h-78zM262 886z" />
<glyph unicode="&#xb5;" horiz-adv-x="1115" d="M-148 -399l6 31q79 0 116 71q13 25 42 144q3 12 25 105q25 105 48 200l132 530q2 11 5 34q0 43 -39 54q-11 4 -75 5v26l289 56q5 0 8 -3.5t3 -9.5l-3 -13l-175 -676q-2 -9 -2 -15.5t-1 -13.5q0 -39 41 -40q99 -2 290 305q58 93 108 213q23 53 87 231h143l-179 -670 q-9 -32 -12 -61q0 -16 7.5 -22t17.5 -8q21 0 67 44q7 6 31 35l7 10q14 17 52 63l27 -18q-41 -68 -91 -124q-94 -105 -174 -105q-93 0 -94 94q-1 58 63 285l23 81l-9 1q-70 -125 -139 -226q-155 -230 -249 -231q-37 0 -58 21l-101 -403h-237z" />
<glyph unicode="&#xb6;" horiz-adv-x="877" d="M-41 914q-1 101 51.5 186.5t142.5 128.5q110 52 380 52h302v-36q-55 -3 -78 -25q-40 -36 -52 -145q-11 -99 -11 -260v-527q0 -226 -59 -348q-111 -230 -458 -218q31 19 57 42q63 56 89 123q23 60 32 218q3 44 5 438q-171 0 -283 99q-117 103 -118 272zM280 -229l2 -11 q196 38 257 211q37 103 37 378v361q0 216 6 320q10 167 67 215h-155q-14 0 -38 -42q-19 -34 -24 -55q-12 -42 -13 -145q-1 -31 -2 -83q-1 -42 -1 -83v-488q0 -279 -4 -314q-23 -198 -132 -264z" />
<glyph unicode="&#xb7;" horiz-adv-x="483" d="M100 642q0 44 32 76.5t76 33.5q47 1 81.5 -32.5t34.5 -77.5q0 -47 -33 -79.5t-80 -32.5t-79 32t-32 80z" />
<glyph unicode="&#xb8;" horiz-adv-x="644" d="M49 -388l27 60l29 -8q43 -12 90 -14q38 -1 66 11q45 18 46 70q1 73 -84 74q-41 1 -74 -9l-13 11l80 193h68l-50 -129q10 2 31 6q9 1 28 2q67 0 111 -33q47 -37 48 -102q2 -162 -244 -164q-22 0 -55 5q-58 9 -104 27z" />
<glyph unicode="&#xb9;" horiz-adv-x="580" d="M128 1176v16l24 10l201 97h4q2 0 5 -4v-684q0 -53 27 -67q23 -12 92 -20v-16h-345v16q70 7 86 15q33 17 33 72v533q0 27 -6.5 41.5t-33.5 14.5q-15 0 -27.5 -2.5t-59.5 -21.5z" />
<glyph unicode="&#xba;" horiz-adv-x="600" d="M126 1112q-1 95 46 164q53 77 145 76q91 0 143 -77q47 -68 47 -163t-47 -162q-53 -77 -143 -78q-92 0 -145 77q-45 67 -46 163zM192 1112q0 -214 125 -215q123 -2 123 215q0 214 -123 216q-125 2 -125 -216zM275 1111l41 41l40 -41l-40 -40zM317 1352z" />
<glyph unicode="&#xbb;" d="M85 790q0 8 5.5 14.5t14.5 6.5t66 -58q172 -159 344 -319l-7 -7l-11 -8l-90 -77l-210 -193q-26 -26 -79 -75l-11 -5q-20 0 -20 22q0 43 249 348q-123 150 -173 219q-77 104 -78 132zM455 790q0 8 5.5 14.5t13.5 6.5q6 0 20 -13q9 -7 47 -45q20 -21 344 -319l-7 -7l-11 -8 l-90 -77l-211 -193q-26 -26 -78 -75l-12 -5q-20 0 -20 22q0 40 249 348q-144 180 -186 237q-63 87 -64 114z" />
<glyph unicode="&#xbc;" horiz-adv-x="1451" d="M103 1166v16l226 108q1 0 4 1q1 0 2 -1.5t2 -4.5v-683q0 -56 33 -74q19 -9 86 -13v-16h-344v16q66 3 92.5 21t26.5 66v533q0 56 -39 57q-26 1 -89 -26zM241 -14l879 1317h89l-873 -1317h-95zM710 183v76l392 520h58v-520h130v-76h-130v-192h-97v192h-353zM761 259h300 v402z" />
<glyph unicode="&#xbd;" horiz-adv-x="1451" d="M103 1166v16l226 108q1 0 4 1q1 0 2 -1.5t2 -4.5v-683q0 -56 33 -74q19 -9 86 -13v-16h-344v16q66 3 92.5 21t26.5 66v533q0 56 -39 57q-26 1 -89 -26zM215 -14l815 1317h90l-811 -1317h-94zM764 553q61 235 265 237q96 1 162 -55q69 -59 70 -153q1 -89 -54 -177 q-37 -60 -195 -213l-114 -112q9 0 88 -1l89 -1q127 -1 156 10q26 9 66 71l22 -10l-63 -158h-490v19q227 219 238 232q148 165 149 283q1 71 -47.5 121.5t-119.5 50.5q-75 1 -120 -42q-35 -33 -69 -112z" />
<glyph unicode="&#xbe;" horiz-adv-x="1451" d="M50 550q-1 40 47 42q19 1 86.5 -29t103.5 -30q71 -1 116 48t45 121q0 106 -90 152q-59 30 -143 31h-27v21q206 45 207 183q1 126 -145 128q-105 2 -173 -124l-24 4q25 88 91 140t156 53q77 1 132 -39q61 -44 62 -118q1 -61 -44 -112q-25 -28 -67 -54q153 -46 154 -208 q1 -137 -105 -213q-94 -66 -236 -66q-144 0 -146 70zM255 -14l878 1317h90l-874 -1317h-94zM723 183v76l392 520h59v-520h129v-76h-129v-192h-97v192h-354zM775 259h300v402z" />
<glyph unicode="&#xbf;" horiz-adv-x="859" d="M101 -127q0 122 145 306q134 170 180 462q29 -119 30 -169q0 -9 -1 -15q-18 -112 -102 -300q-73 -164 -74 -273q-1 -98 51 -179t164 -81q56 0 114 31q67 36 68 88q1 21 -38 64.5t-40 81.5q-1 32 23 55t57 24q48 1 74 -42q24 -36 24 -87q1 -128 -108 -205 q-96 -68 -229 -68q-147 0 -240 80q-98 83 -98 227zM289 930l114 113l113 -113l-113 -113z" />
<glyph unicode="&#xc0;" horiz-adv-x="1397" d="M22 -9v59q117 14 143.5 47t26.5 182v160q12 148 31 272q45 298 116 428q80 147 163 239.5t225 191.5q133 -104 210.5 -196t154.5 -235q87 -164 147 -715v-145q0 -148 26.5 -181.5t143.5 -47.5v-59h-557v59q113 14 142.5 46.5t29.5 154.5v139h-617v-139q0 -123 28.5 -155 t142.5 -46v-59h-556zM307 1952q0 60 65 62q38 1 85 -46l285 -287h-79l-297 188q-59 37 -59 83zM407 461h617v41h-617v-41zM407 540h617q-12 389 -63 538q-86 255 -234 428q-101 -98 -158 -197q-46 -81 -99 -231q-68 -193 -63 -538zM691 1303z" />
<glyph unicode="&#xc1;" horiz-adv-x="1397" d="M22 -9v59q117 14 143.5 47t26.5 182v160q12 148 31 272q45 298 116 428q80 147 163 239.5t225 191.5q133 -104 210.5 -196t154.5 -235q87 -164 147 -715v-145q0 -148 26.5 -181.5t143.5 -47.5v-59h-557v59q113 14 142.5 46.5t29.5 154.5v139h-617v-139q0 -123 28.5 -155 t142.5 -46v-59h-556zM407 461h617v41h-617v-41zM407 540h617q-12 389 -63 538q-86 255 -234 428q-101 -98 -158 -197q-46 -81 -99 -231q-68 -193 -63 -538zM691 1303zM724 1670l284 286q45 46 86 48q26 1 45.5 -18.5t20.5 -45.5q0 -43 -60 -82l-298 -188h-78z" />
<glyph unicode="&#xc2;" horiz-adv-x="1397" d="M22 -9v59q117 14 143.5 47t26.5 182v160q12 148 31 272q45 298 116 428q80 147 163 239.5t225 191.5q133 -104 210.5 -196t154.5 -235q87 -164 147 -715v-145q0 -148 26.5 -181.5t143.5 -47.5v-59h-557v59q113 14 142.5 46.5t29.5 154.5v139h-617v-139q0 -123 28.5 -155 t142.5 -46v-59h-556zM407 461h617v41h-617v-41zM407 540h617q-12 389 -63 538q-86 255 -234 428q-101 -98 -158 -197q-46 -81 -99 -231q-68 -193 -63 -538zM445 1545l242 322h121l242 -322h-67l-235 200l-236 -200h-67z" />
<glyph unicode="&#xc3;" horiz-adv-x="1397" d="M22 -9v59q117 14 143.5 47t26.5 182v160q12 148 31 272q45 298 116 428q80 147 163 239.5t225 191.5q133 -104 210.5 -196t154.5 -235q87 -164 147 -715v-145q0 -148 26.5 -181.5t143.5 -47.5v-59h-557v59q113 14 142.5 46.5t29.5 154.5v139h-617v-139q0 -123 28.5 -155 t142.5 -46v-59h-556zM407 461h617v41h-617v-41zM407 540h617q-12 389 -63 538q-86 255 -234 428q-101 -98 -158 -197q-46 -81 -99 -231q-68 -193 -63 -538zM416 1617q46 193 205 195q55 1 129 -36l47 -23q58 -28 92 -28q79 0 112 96h56q-4 -51 -37 -106q-58 -97 -170 -98 q-63 -1 -152 44l-44 23q-37 19 -74 20q-48 1 -76 -32q-13 -15 -30 -55h-58z" />
<glyph unicode="&#xc4;" horiz-adv-x="1397" d="M22 -9v59q117 14 143.5 47t26.5 182v160q12 148 31 272q45 298 116 428q80 147 163 239.5t225 191.5q133 -104 210.5 -196t154.5 -235q87 -164 147 -715v-145q0 -148 26.5 -181.5t143.5 -47.5v-59h-557v59q113 14 142.5 46.5t29.5 154.5v139h-617v-139q0 -123 28.5 -155 t142.5 -46v-59h-556zM403 1771q-1 40 27 68t68 28t68 -28t28 -68q0 -41 -28 -68.5t-68 -27.5q-41 0 -67.5 27.5t-27.5 68.5zM407 461h617v41h-617v-41zM407 540h617q-12 389 -63 538q-86 255 -234 428q-101 -98 -158 -197q-46 -81 -99 -231q-68 -193 -63 -538zM787 1771 q0 40 28.5 68t68.5 28t68 -28t28 -68q0 -41 -28 -68.5t-68 -27.5t-68.5 28t-28.5 68z" />
<glyph unicode="&#xc5;" horiz-adv-x="1397" d="M22 -9v59q117 14 143.5 47t26.5 182v160q12 148 31 272q45 298 116 428q80 147 163 239.5t225 191.5q133 -104 210.5 -196t154.5 -235q87 -164 147 -715v-145q0 -148 26.5 -181.5t143.5 -47.5v-59h-557v59q113 14 142.5 46.5t29.5 154.5v139h-617v-139q0 -123 28.5 -155 t142.5 -46v-59h-556zM407 461h617v41h-617v-41zM407 540h617q-12 389 -63 538q-86 255 -234 428q-101 -98 -158 -197q-46 -81 -99 -231q-68 -193 -63 -538zM524 1794q-1 82 57 138.5t140 57.5q81 1 138.5 -56.5t58.5 -139.5t-57 -139.5t-140 -58.5t-139 57t-58 141z M602 1794q-1 -50 34 -84.5t85 -34.5q49 0 83 35t35 84q1 48 -34 82.5t-84 35.5t-83.5 -34t-35.5 -84zM691 1236z" />
<glyph unicode="&#xc6;" horiz-adv-x="1883" d="M22 -9v59q117 14 143.5 47t26.5 182v160q12 148 31 272q45 298 116 428q75 137 173 231q79 74 237 178l1058 -2l-93 -333h-49q17 153 -19.5 198.5t-237.5 45.5h-263q-42 0 -53 -19q-9 -13 -9 -58v-519h477l-179 -92h-298v-574q0 -70 35 -82.5t219 -12.5q207 0 293 55 q95 60 166 247h54l-88 -393h-1047v42q114 15 144 54q26 35 27 156v1034q0 123 -32 160q-26 31 -99 42q-114 -111 -172 -192q-67 -96 -113 -227q-68 -193 -63 -538h518v-150h-518v-139q0 -123 28.5 -155t142.5 -46v-59h-556zM407 461h462v41h-462v-41z" />
<glyph unicode="&#xc7;" horiz-adv-x="1290" d="M48 628q0 282 179 474q187 201 489 201q75 0 195 -31t145 -31q28 0 56 18q21 15 30 44h40l18 -434h-44q-39 130 -101 208q-118 149 -321 150q-232 0 -356 -193q-105 -165 -105 -410q0 -238 118 -394q131 -173 361 -174q147 -1 277 72q75 42 160 122l36 -35 q-64 -81 -160 -143q-160 -103 -352 -104q-43 0 -67 2l-35 -99l30 6q9 1 28 2q67 0 111 -33q47 -37 48 -102q2 -162 -244 -164q-22 0 -55 5q-58 9 -104 27l27 60l29 -8q43 -12 90 -14q38 -1 66 11q45 18 46 70q1 73 -84 74q-41 1 -74 -9l-13 11l70 169q-258 26 -400 212 q-134 174 -134 440z" />
<glyph unicode="&#xc8;" horiz-adv-x="1182" d="M22 0v42q114 15 143 53q26 35 27 156v1034q0 117 -28 154q-32 43 -142 54v44h1091l-92 -334h-49q17 153 -19.5 199t-238.5 46h-262q-42 0 -54 -19q-9 -13 -9 -59v-518h478l-180 -92h-298v-575q0 -70 35 -82t220 -12q207 0 293 55q95 60 165 246h54l-88 -392h-1046z M277 1895q0 60 65 62q38 1 85 -46l285 -286h-79l-297 188q-59 37 -59 82z" />
<glyph unicode="&#xc9;" horiz-adv-x="1182" d="M22 0v42q114 15 143 53q26 35 27 156v1034q0 117 -28 154q-32 43 -142 54v44h1091l-92 -334h-49q17 153 -19.5 199t-238.5 46h-262q-42 0 -54 -19q-9 -13 -9 -59v-518h478l-180 -92h-298v-575q0 -70 35 -82t220 -12q207 0 293 55q95 60 165 246h54l-88 -392h-1046z M559 1625l285 286q45 46 86 47q26 1 45 -18.5t20 -44.5q1 -43 -59 -82l-298 -188h-79z" />
<glyph unicode="&#xca;" horiz-adv-x="1182" d="M22 0v42q114 15 143 53q26 35 27 156v1034q0 117 -28 154q-32 43 -142 54v44h1091l-92 -334h-49q17 153 -19.5 199t-238.5 46h-262q-42 0 -54 -19q-9 -13 -9 -59v-518h478l-180 -92h-298v-575q0 -70 35 -82t220 -12q207 0 293 55q95 60 165 246h54l-88 -392h-1046z M279 1579l242 323h121l242 -323h-67l-236 200l-235 -200h-67z" />
<glyph unicode="&#xcb;" horiz-adv-x="1182" d="M22 0v42q114 15 143 53q26 35 27 156v1034q0 117 -28 154q-32 43 -142 54v44h1091l-92 -334h-49q17 153 -19.5 199t-238.5 46h-262q-42 0 -54 -19q-9 -13 -9 -59v-518h478l-180 -92h-298v-575q0 -70 35 -82t220 -12q207 0 293 55q95 60 165 246h54l-88 -392h-1046z M304 1748q-1 40 27.5 68.5t68.5 28.5t68 -28.5t28 -68.5q0 -41 -28.5 -68.5t-67.5 -27.5q-41 0 -68 28t-28 68zM689 1748q0 40 28.5 68.5t67.5 28.5q40 0 68.5 -28.5t28.5 -68.5q0 -41 -28.5 -68.5t-68.5 -27.5t-68 28.5t-28 67.5z" />
<glyph unicode="&#xcc;" horiz-adv-x="644" d="M25 1872q0 60 65 63q38 1 85 -47l284 -286h-78l-298 188q-59 37 -58 82zM56 0v42q124 12 156 47.5t32 161.5v1034q0 122 -33 161q-36 42 -155 47v44h572v-44q-117 -6 -152.5 -43t-35.5 -165v-1034q0 -134 35 -167q31 -29 153 -42v-42h-572z" />
<glyph unicode="&#xcd;" horiz-adv-x="644" d="M56 0v42q124 12 156 47.5t32 161.5v1034q0 122 -33 161q-36 42 -155 47v44h572v-44q-117 -6 -152.5 -43t-35.5 -165v-1034q0 -134 35 -167q31 -29 153 -42v-42h-572zM260 1636l284 286q45 46 86 48q26 1 45.5 -18.5t20.5 -45.5q0 -43 -60 -82l-298 -188h-78z" />
<glyph unicode="&#xce;" horiz-adv-x="644" d="M38 1625l242 322h121l242 -322h-67l-236 199l-235 -199h-67zM56 0v42q124 12 156 47.5t32 161.5v1034q0 122 -33 161q-36 42 -155 47v44h572v-44q-117 -6 -152.5 -43t-35.5 -165v-1034q0 -134 35 -167q31 -29 153 -42v-42h-572z" />
<glyph unicode="&#xcf;" horiz-adv-x="644" d="M29 1748q-1 40 27.5 68.5t68.5 28.5t68 -28.5t28 -68.5q0 -41 -28.5 -68.5t-67.5 -27.5q-41 0 -68 28t-28 68zM56 0v42q124 12 156 47.5t32 161.5v1034q0 122 -33 161q-36 42 -155 47v44h572v-44q-117 -6 -152.5 -43t-35.5 -165v-1034q0 -134 35 -167q31 -29 153 -42v-42 h-572zM414 1748q0 40 28.5 68.5t67.5 28.5q40 0 68.5 -28.5t28.5 -68.5q0 -41 -28.5 -68.5t-68.5 -27.5t-68 28.5t-28 67.5z" />
<glyph unicode="&#xd0;" horiz-adv-x="1397" d="M31 0v35q109 11 137 39q33 30 33 136v399h-170v85h170v377q0 105 -33 137q-30 28 -137 37v36h522q347 0 545 -145q228 -165 228 -500q0 -318 -235 -495q-74 -56 -157 -86q-150 -55 -365 -55h-538zM398 149q0 -53 35 -68q20 -9 84 -9q226 -1 373 90q224 138 225 471 q0 282 -165 431q-158 145 -441 146q-60 0 -80 -10q-31 -15 -31 -67v-439h323v-85h-323v-460z" />
<glyph unicode="&#xd1;" horiz-adv-x="1397" d="M31 9v24q132 19 167 98q21 47 21 210v944q0 128 -36 169q-34 39 -147 48v25h437l536 -216l359 -1v-26q-104 -9 -137 -50q-19 -24 -80 -125v-1340l-145 -246l-1 1609l-587 206v-997q0 -194 48 -254q31 -39 133 -54v-24h-568zM453 1591q46 193 205 194q55 1 129 -36l47 -22 q58 -28 92 -29q79 0 112 97h55q-4 -51 -36 -106q-58 -97 -171 -98q-63 -1 -151 44l-44 23q-37 19 -74 20q-48 1 -76 -33q-13 -15 -30 -54h-58z" />
<glyph unicode="&#xd2;" horiz-adv-x="1397" d="M58 767q0 373 194 598q178 204 440 205q305 0 480 -258q154 -227 154 -545q0 -377 -200 -601q-179 -199 -434 -199q-304 0 -479 257q-155 227 -155 543zM277 767q0 -270 76 -455q107 -260 339 -261t338 261q76 186 76 455q0 271 -75 457q-106 261 -339 262 q-232 1 -339 -262q-77 -188 -76 -457zM410 1877q0 60 65 62q38 1 85 -46l285 -286h-79l-297 188q-59 37 -59 82zM554 766l136 136l136 -136l-136 -137zM692 1570z" />
<glyph unicode="&#xd3;" horiz-adv-x="1397" d="M58 767q0 373 194 598q178 204 440 205q305 0 480 -258q154 -227 154 -545q0 -377 -200 -601q-179 -199 -434 -199q-304 0 -479 257q-155 227 -155 543zM277 767q0 -270 76 -455q107 -260 339 -261t338 261q76 186 76 455q0 271 -75 457q-106 261 -339 262 q-232 1 -339 -262q-77 -188 -76 -457zM554 766l136 136l136 -136l-136 -137zM680 1652l284 286q45 46 86 48q26 1 45 -18.5t20 -45.5q1 -43 -59 -82l-298 -188h-78zM692 1570z" />
<glyph unicode="&#xd4;" horiz-adv-x="1397" d="M58 767q0 373 194 598q178 204 440 205q305 0 480 -258q154 -227 154 -545q0 -377 -200 -601q-179 -199 -434 -199q-304 0 -479 257q-155 227 -155 543zM277 767q0 -270 76 -455q107 -260 339 -261t338 261q76 186 76 455q0 271 -75 457q-106 261 -339 262 q-232 1 -339 -262q-77 -188 -76 -457zM389 1573l242 322h121l242 -322h-67l-235 199l-236 -199h-67zM554 766l136 136l136 -136l-136 -137zM692 1570z" />
<glyph unicode="&#xd5;" horiz-adv-x="1397" d="M58 767q0 373 194 598q178 204 440 205q305 0 480 -258q154 -227 154 -545q0 -377 -200 -601q-179 -199 -434 -199q-304 0 -479 257q-155 227 -155 543zM277 767q0 -270 76 -455q107 -260 339 -261t338 261q76 186 76 455q0 271 -75 457q-106 261 -339 262 q-232 1 -339 -262q-77 -188 -76 -457zM349 1622q46 193 205 194q55 1 129 -35l47 -23q58 -28 92 -28q79 0 112 96h56q-4 -51 -37 -106q-58 -97 -170 -98q-63 -1 -152 44l-44 23q-37 19 -74 20q-48 1 -76 -32q-13 -15 -30 -55h-58zM554 766l136 136l136 -136l-136 -137z M692 1570z" />
<glyph unicode="&#xd6;" horiz-adv-x="1397" d="M58 767q0 373 194 598q178 204 440 205q305 0 480 -258q154 -227 154 -545q0 -377 -200 -601q-179 -199 -434 -199q-304 0 -479 257q-155 227 -155 543zM277 767q0 -270 76 -455q107 -260 339 -261t338 261q76 186 76 455q0 271 -75 457q-106 261 -339 262 q-232 1 -339 -262q-77 -188 -76 -457zM404 1776q-1 40 27 68t68 28t68 -28t28 -68q0 -41 -28 -69t-68 -28q-41 0 -68 28t-27 69zM554 766l136 136l136 -136l-136 -137zM692 1570zM788 1776q0 40 28.5 68t68.5 28t68 -28t28 -68q0 -41 -28 -69t-68 -28t-68.5 28.5t-28.5 68.5 z" />
<glyph unicode="&#xd7;" horiz-adv-x="1091" d="M80 118l370 372l-370 370l94 94l369 -370l373 370l94 -94l-372 -370l372 -372l-94 -93l-373 369l-369 -369z" />
<glyph unicode="&#xd8;" horiz-adv-x="1397" d="M58 640q0 311 194 497q178 170 440 171q187 0 340 -96l142 208h93l-172 -254q87 -69 153 -188q77 -139 78 -338q0 -309 -195 -495q-179 -171 -448 -172q-169 -1 -331 91l-155 -221h-94l183 267q-102 102 -149 188q-79 145 -79 342zM277 640q0 -133 24 -231 q26 -107 66 -177l600 885q-61 54 -106 79q-77 43 -176 42q-214 0 -322 -203q-86 -163 -86 -395zM416 164q112 -120 284 -121q212 -1 320 202q86 161 86 391q0 140 -22.5 234.5t-69.5 179.5z" />
<glyph unicode="&#xd9;" horiz-adv-x="1397" d="M31 1501v41h538v-41q-110 -13 -139 -47q-32 -37 -32 -163v-279q-4 -361 63 -551q54 -153 102 -236q59 -100 165 -202q155 178 242 438q55 163 63 554v276q0 126 -32 163q-29 34 -139 47v41h538v-41q-121 -15 -151 -64q-20 -35 -19 -173v-145q-17 -160 -38 -289 q-50 -311 -109 -422q-76 -144 -152.5 -234t-204.5 -189q-136 95 -217.5 186t-160.5 237q-132 243 -147 696v160q0 138 -20 173q-29 49 -150 64zM396 1884q0 60 65 62q38 1 85 -46l285 -287h-79l-297 188q-59 37 -59 83z" />
<glyph unicode="&#xda;" horiz-adv-x="1397" d="M31 1501v41h538v-41q-110 -13 -139 -47q-32 -37 -32 -163v-279q-4 -361 63 -551q54 -153 102 -236q59 -100 165 -202q155 178 242 438q55 163 63 554v276q0 126 -32 163q-29 34 -139 47v41h538v-41q-121 -15 -151 -64q-20 -35 -19 -173v-145q-17 -160 -38 -289 q-50 -311 -109 -422q-76 -144 -152.5 -234t-204.5 -189q-136 95 -217.5 186t-160.5 237q-132 243 -147 696v160q0 138 -20 173q-29 49 -150 64zM677 1625l284 286q45 46 86 47q26 1 45 -18.5t20 -44.5q1 -43 -59 -82l-298 -188h-78z" />
<glyph unicode="&#xdb;" horiz-adv-x="1397" d="M31 1501v41h538v-41q-110 -13 -139 -47q-32 -37 -32 -163v-279q-4 -361 63 -551q54 -153 102 -236q59 -100 165 -202q155 178 242 438q55 163 63 554v276q0 126 -32 163q-29 34 -139 47v41h538v-41q-121 -15 -151 -64q-20 -35 -19 -173v-145q-17 -160 -38 -289 q-50 -311 -109 -422q-76 -144 -152.5 -234t-204.5 -189q-136 95 -217.5 186t-160.5 237q-132 243 -147 696v160q0 138 -20 173q-29 49 -150 64zM398 1625l242 322h121l242 -322h-67l-236 199l-235 -199h-67z" />
<glyph unicode="&#xdc;" horiz-adv-x="1397" d="M31 1501v41h538v-41q-110 -13 -139 -47q-32 -37 -32 -163v-279q-4 -361 63 -551q54 -153 102 -236q59 -100 165 -202q155 178 242 438q55 163 63 554v276q0 126 -32 163q-29 34 -139 47v41h538v-41q-121 -15 -151 -64q-20 -35 -19 -173v-145q-17 -160 -38 -289 q-50 -311 -109 -422q-76 -144 -152.5 -234t-204.5 -189q-136 95 -217.5 186t-160.5 237q-132 243 -147 696v160q0 138 -20 173q-29 49 -150 64zM412 1748q-1 40 27.5 68.5t68.5 28.5t68 -28.5t28 -68.5q0 -41 -28.5 -68.5t-67.5 -27.5q-41 0 -68 28t-28 68zM797 1748 q0 40 28 68.5t68 28.5t68.5 -28.5t28.5 -68.5q0 -41 -28.5 -68.5t-68.5 -27.5t-68 28.5t-28 67.5z" />
<glyph unicode="&#xdd;" horiz-adv-x="1397" d="M31 1503v41h538v-41q-110 -13 -139 -48q-22 -25 -25 -31q-8 -19 -7 -74v-128q-4 -87 63 -277q43 -123 102 -189q82 -77 165 -155q73 79 144 158q59 72 98 186q55 164 63 280v125q0 56 -8 74q-3 7 -24 31q-29 34 -139 48v41h538v-41q-113 -14 -141.5 -50t-28.5 -131v7 q-17 -79 -38 -152q-50 -174 -109 -285q-63 -119 -152 -186q-102 -72 -205 -143q-109 70 -218 139q-95 67 -160 190q-132 243 -147 422v8q0 95 -28 131t-142 50zM433 -25q133 9 167 56q27 39 28 182v427l104 310l88 -317l5 -448q2 -136 37 -168.5t162 -41.5v-41h-591v41z M686 1596l285 287q45 46 86 47q26 1 45 -18.5t20 -44.5q0 -44 -60 -83l-297 -188h-79z" />
<glyph unicode="&#xde;" horiz-adv-x="1076" d="M31 0v35q108 9 138 49q27 35 28 148v839q0 101 -32 132.5t-134 41.5v36h533v-36q-97 -3 -131 -25q-44 -29 -46 -118v-18q0 -14 2 -31h151q158 0 287 -43q218 -72 218 -298q0 -112 -57.5 -201t-158.5 -131q-80 -34 -201 -44q-57 -5 -239 -7v-79q0 -130 28 -165 q31 -41 156 -50v-35h-542zM389 407l68 -3q131 -6 228 41q154 74 155 284q1 254 -333 256q-77 1 -96 -13q-22 -17 -22 -90v-475z" />
<glyph unicode="&#xdf;" d="M22 -246q66 6 88 24q33 27 33 111v991q0 169 42 266q77 177 294 178q143 1 240 -76q95 -75 96 -211q1 -143 -118 -234q-64 -48 -144 -71q152 -38 227 -95q126 -96 126 -280q1 -156 -100.5 -267t-243.5 -111q-77 0 -129 33q-60 40 -62 113q-1 90 85 91q34 1 57.5 -20.5 t26.5 -57.5l3 -43q2 -26 13.5 -41.5t45.5 -15.5q77 -1 106 110q14 57 15 167q2 370 -277 377q-40 1 -41 32q-1 25 44 29q78 9 121 42q77 60 78 204q1 82 -25 152q-44 120 -155 121q-164 1 -164 -242v-1304h-282v28z" />
<glyph unicode="&#xe0;" horiz-adv-x="1174" d="M17 -8v48q95 11 115.5 37.5t20.5 145.5v128q9 118 25 217q37 239 93 343q113 207 310 345q185 -144 292 -345q70 -131 118 -572v-116q0 -119 21 -145.5t115 -37.5v-48h-445v48q90 11 113 37.5t23 123.5v111h-492v-111q0 -97 23 -123.5t114 -37.5v-48h-446zM160 1625 q0 60 65 62q38 1 85 -46l284 -287h-78l-298 188q-59 37 -58 83zM326 369h492v33h-492v-33zM326 432h492q-6 302 -49 431q-68 204 -188 341q-80 -77 -125 -157q-37 -63 -80 -184q-56 -157 -50 -431z" />
<glyph unicode="&#xe1;" horiz-adv-x="1185" d="M17 -8v48q95 11 115.5 37.5t20.5 145.5v128q9 118 25 217q37 239 93 343q113 207 310 345q185 -144 292 -345q70 -131 118 -572v-116q0 -119 21 -145.5t115 -37.5v-48h-445v48q90 11 113 37.5t23 123.5v111h-492v-111q0 -97 23 -123.5t114 -37.5v-48h-446zM326 369h492 v33h-492v-33zM326 432h492q-6 302 -49 431q-68 204 -188 341q-80 -77 -125 -157q-37 -63 -80 -184q-56 -157 -50 -431zM431 896zM564 1385l285 287q45 46 86 47q26 1 45 -18.5t20 -44.5q0 -43 -60 -82l-297 -189h-79z" />
<glyph unicode="&#xe2;" horiz-adv-x="1143" d="M17 -8v48q95 11 115.5 37.5t20.5 145.5v128q9 118 25 217q37 239 93 343q113 207 310 345q185 -144 292 -345q70 -131 118 -572v-116q0 -119 21 -145.5t115 -37.5v-48h-445v48q90 11 113 37.5t23 123.5v111h-492v-111q0 -97 23 -123.5t114 -37.5v-48h-446zM295 1240 l242 322h121l242 -322h-67l-236 199l-235 -199h-67zM326 369h492v33h-492v-33zM326 432h492q-6 302 -49 431q-68 204 -188 341q-80 -77 -125 -157q-37 -63 -80 -184q-56 -157 -50 -431z" />
<glyph unicode="&#xe3;" horiz-adv-x="1164" d="M17 -8v48q95 11 115.5 37.5t20.5 145.5v128q9 118 25 217q37 239 93 343q113 207 310 345q185 -144 292 -345q70 -131 118 -572v-116q0 -119 21 -145.5t115 -37.5v-48h-445v48q90 11 113 37.5t23 123.5v111h-492v-111q0 -97 23 -123.5t114 -37.5v-48h-446zM246 1341 q46 193 205 195q55 1 129 -36l47 -23q58 -28 92 -28q79 0 112 96h55q-4 -51 -36 -106q-58 -97 -170 -98q-63 -1 -152 44l-44 23q-37 19 -74 20q-48 1 -76 -32q-13 -15 -30 -55h-58zM326 369h492v33h-492v-33zM326 432h492q-6 302 -49 431q-68 204 -188 341 q-80 -77 -125 -157q-37 -63 -80 -184q-56 -157 -50 -431z" />
<glyph unicode="&#xe4;" horiz-adv-x="1174" d="M17 -8v48q95 11 115.5 37.5t20.5 145.5v128q9 118 25 217q37 239 93 343q113 207 310 345q185 -144 292 -345q70 -131 118 -572v-116q0 -119 21 -145.5t115 -37.5v-48h-445v48q90 11 113 37.5t23 123.5v111h-492v-111q0 -97 23 -123.5t114 -37.5v-48h-446zM299 1426 q-1 40 27 68.5t68 28.5t68 -28.5t28 -68.5q0 -41 -28 -68.5t-68 -27.5q-41 0 -67.5 27.5t-27.5 68.5zM326 369h492v33h-492v-33zM326 432h492q-6 302 -49 431q-68 204 -188 341q-80 -77 -125 -157q-37 -63 -80 -184q-56 -157 -50 -431zM683 1426q0 40 28.5 68.5t68.5 28.5 t68 -28.5t28 -68.5q0 -41 -28 -68.5t-68 -27.5t-68.5 28t-28.5 68z" />
<glyph unicode="&#xe5;" horiz-adv-x="1174" d="M17 -8v48q95 11 115.5 37.5t20.5 145.5v128q9 118 25 217q37 239 93 343q113 207 310 345q185 -144 292 -345q70 -131 118 -572v-116q0 -119 21 -145.5t115 -37.5v-48h-445v48q90 11 113 37.5t23 123.5v111h-492v-111q0 -97 23 -123.5t114 -37.5v-48h-446zM326 369h492 v33h-492v-33zM326 432h492q-6 302 -49 431q-68 204 -188 341q-80 -77 -125 -157q-37 -63 -80 -184q-56 -157 -50 -431zM379 1477q-1 82 57.5 139t140.5 58q81 1 138 -57t58 -140t-56.5 -139t-139.5 -58t-139.5 56.5t-58.5 140.5zM431 896zM457 1477q-1 -50 34.5 -84.5 t85.5 -34.5q49 0 83 35t35 84q1 48 -34 82.5t-84 35.5t-84 -34t-36 -84z" />
<glyph unicode="&#xe6;" horiz-adv-x="1506" d="M17 -8v48q95 11 115.5 37.5t20.5 145.5v128q9 118 25 217q37 239 93 343q60 110 139 185q62 60 189 142l847 -1l-75 -267h-38q13 124 -16.5 160t-189.5 36h-210q-33 0 -43 -15q-8 -11 -7 -47v-415h381l-143 -74h-238v-459q0 -57 27 -66t176 -10q164 -1 234 44 q77 47 133 197h43l-71 -313h-836v33q84 11 110 37t26 131v827q0 99 -28 131q-22 23 -77 30q-166 -161 -228 -334q-56 -157 -50 -431h414v-120h-414v-111q0 -97 23 -123.5t114 -37.5v-48h-446zM326 369h369v33h-369v-33z" />
<glyph unicode="&#xe7;" horiz-adv-x="1030" d="M20 622q0 270 143 454q150 194 391 194q85 0 173 -30q85 -29 127 -29q54 0 85 59h33l-98 -418h-36q3 125 -27 201q-57 143 -242 143q-197 1 -294 -203q-76 -157 -76 -375q0 -212 85 -361q103 -183 299 -184q118 -1 221 69q60 41 128 117l29 -34q-51 -78 -127 -137 q-130 -100 -283 -100q-250 0 -396 192q-135 176 -135 442zM352 -370l26 61l29 -9q43 -12 90 -13q38 -1 66 11q45 18 47 70q1 73 -85 74q-41 1 -73 -9l-13 11l73 175h68l-43 -111l30 6q9 0 28 2q67 0 111 -33q47 -37 48 -102q2 -162 -244 -164q-22 0 -54 5q-58 9 -104 26z M549 1270z" />
<glyph unicode="&#xe8;" horiz-adv-x="859" d="M17 0v33q91 12 115 44q21 28 21 124v827q0 95 -22 124q-25 34 -114 43v35h873l-73 -268h-40q14 123 -15.5 160t-189.5 37h-211q-33 0 -43 -16q-7 -10 -6 -47v-415h361l-123 -73h-238v-460q0 -57 27.5 -65.5t175.5 -9.5q164 -1 234 43q76 47 133 198h42l-70 -314h-837z M127 1626q0 60 65 62q38 1 85 -46l284 -287h-78l-298 188q-59 37 -58 83z" />
<glyph unicode="&#xe9;" horiz-adv-x="859" d="M17 0v33q91 12 115 44q21 28 21 124v827q0 95 -22 124q-25 34 -114 43v35h873l-73 -268h-40q14 123 -15.5 160t-189.5 37h-211q-33 0 -43 -16q-7 -10 -6 -47v-415h361l-123 -73h-238v-460q0 -57 27.5 -65.5t175.5 -9.5q164 -1 234 43q76 47 133 198h42l-70 -314h-837z M407 1321l285 287q45 46 86 47q26 1 45 -18.5t20 -44.5q0 -44 -60 -83l-297 -188h-79zM431 886z" />
<glyph unicode="&#xea;" horiz-adv-x="859" d="M17 0v33q91 12 115 44q21 28 21 124v827q0 95 -22 124q-25 34 -114 43v35h873l-73 -268h-40q14 123 -15.5 160t-189.5 37h-211q-33 0 -43 -16q-7 -10 -6 -47v-415h361l-123 -73h-238v-460q0 -57 27.5 -65.5t175.5 -9.5q164 -1 234 43q76 47 133 198h42l-70 -314h-837z M174 1265l242 322h121l242 -322h-67l-236 199l-235 -199h-67z" />
<glyph unicode="&#xeb;" horiz-adv-x="859" d="M17 0v33q91 12 115 44q21 28 21 124v827q0 95 -22 124q-25 34 -114 43v35h873l-73 -268h-40q14 123 -15.5 160t-189.5 37h-211q-33 0 -43 -16q-7 -10 -6 -47v-415h361l-123 -73h-238v-460q0 -57 27.5 -65.5t175.5 -9.5q164 -1 234 43q76 47 133 198h42l-70 -314h-837z M165 1422q-1 40 27.5 68.5t68.5 28.5t68 -28.5t28 -68.5q0 -41 -28 -68.5t-68 -27.5q-41 0 -68 28t-28 68zM550 1422q0 40 28.5 68.5t67.5 28.5q40 0 68.5 -28.5t28.5 -68.5q0 -41 -28.5 -68.5t-68.5 -27.5t-68 28.5t-28 67.5z" />
<glyph unicode="&#xec;" horiz-adv-x="537" d="M-68 1648q0 60 65 63q38 1 85 -47l285 -286h-79l-297 188q-59 37 -59 82zM44 0v33q100 10 125.5 37.5t25.5 130.5v1016q29 -52 55 -90q64 -92 103 -99v-827q0 -112 31 -137q29 -22 119 -31v-33h-459z" />
<glyph unicode="&#xed;" horiz-adv-x="537" d="M44 0v33q100 10 125.5 37.5t25.5 130.5v1016q29 -52 55 -90q64 -92 103 -99v-827q0 -112 31 -137q29 -22 119 -31v-33h-459zM167 1378l285 286q45 46 86 48q26 1 45 -18.5t20 -45.5q0 -43 -60 -82l-297 -188h-79z" />
<glyph unicode="&#xee;" horiz-adv-x="537" d="M-32 1242l242 322h121l242 -322h-67l-236 199l-235 -199h-67zM44 0v33q100 10 125.5 37.5t25.5 130.5v1016q29 -52 55 -90q64 -92 103 -99v-827q0 -112 31 -137q29 -22 119 -31v-33h-459z" />
<glyph unicode="&#xef;" horiz-adv-x="537" d="M-18 1445q-1 40 27 68t68 28t68.5 -28t28.5 -68q0 -41 -28.5 -68.5t-68.5 -27.5q-41 0 -67.5 27.5t-27.5 68.5zM44 0v33q100 10 125.5 37.5t25.5 130.5v1016q29 -52 55 -90q64 -92 103 -99v-827q0 -112 31 -137q29 -22 119 -31v-33h-459zM367 1445q0 40 28 68t68 28 t68 -28t28 -68q0 -41 -28 -68.5t-68 -27.5t-68 28t-28 68z" />
<glyph unicode="&#xf0;" d="M51 434q0 184 106 313q113 138 294 139q80 -1 155 -34q43 -20 86 -52q-20 86 -65 171q-53 97 -115 139l-194 -107l-43 50l176 99q-113 60 -268 91l18 58q40 -4 84 -11q95 -16 173 -46q43 -17 88 -39l204 110l43 -48l-178 -101q292 -200 293 -658q0 -211 -104 -363 q-119 -174 -320 -174q-171 0 -302 125t-131 338zM226 484q0 -169 75.5 -313.5t206.5 -145.5q118 -1 177 113q46 90 46 220q0 171 -54 300q-75 172 -223 172q-77 0 -132 -48q-96 -85 -96 -298z" />
<glyph unicode="&#xf1;" d="M25 8v18q94 14 122.5 56t28.5 191v765q0 104 -30 135q-24 30 -118 38v20h351l452 -173h202v-21q-84 -7 -110 -40l-2 -101v-1080l-117 -198l-1 1287l-468 175v-807q0 -156 37 -203q25 -31 107 -44v-18h-454zM198 1363q46 193 206 195q55 1 129 -36l46 -23q58 -28 93 -28 q79 0 111 96h56q-4 -51 -37 -106q-58 -97 -170 -98q-63 -1 -151 44l-44 23q-37 19 -74 20q-48 1 -77 -32q-13 -15 -29 -55h-59z" />
<glyph unicode="&#xf2;" horiz-adv-x="1111" d="M46 614q0 298 156 478q143 164 352 164q243 0 384 -206q122 -182 122 -436q0 -302 -159 -481q-143 -160 -347 -159q-244 0 -384 205q-124 181 -124 435zM158 1660q0 60 65 62q38 1 85 -46l285 -287h-79l-298 188q-59 37 -58 83zM221 614q0 -216 62 -364q85 -208 271 -209 t270 209q61 148 61 364t-61 365q-84 209 -270 210q-185 1 -271 -210q-61 -150 -62 -365zM443 612l109 109l109 -109l-109 -108zM554 1256z" />
<glyph unicode="&#xf3;" horiz-adv-x="1111" d="M46 614q0 298 156 478q143 164 352 164q243 0 384 -206q122 -182 122 -436q0 -302 -159 -481q-143 -160 -347 -159q-244 0 -384 205q-124 181 -124 435zM221 614q0 -216 62 -364q85 -208 271 -209t270 209q61 148 61 364t-61 365q-84 209 -270 210q-185 1 -271 -210 q-61 -150 -62 -365zM439 1378l284 286q45 46 86 48q26 1 45 -18.5t20 -45.5q1 -43 -59 -82l-298 -188h-78zM443 612l109 109l109 -109l-109 -108zM554 1256z" />
<glyph unicode="&#xf4;" horiz-adv-x="1111" d="M46 614q0 298 156 478q143 164 352 164q243 0 384 -206q122 -182 122 -436q0 -302 -159 -481q-143 -160 -347 -159q-244 0 -384 205q-124 181 -124 435zM221 614q0 -216 62 -364q85 -208 271 -209t270 209q61 148 61 364t-61 365q-84 209 -270 210q-185 1 -271 -210 q-61 -150 -62 -365zM262 1242l242 322h121l242 -322h-67l-236 199l-235 -199h-67zM443 612l109 109l109 -109l-109 -108zM554 1256z" />
<glyph unicode="&#xf5;" horiz-adv-x="1111" d="M46 614q0 298 156 478q143 164 352 164q243 0 384 -206q122 -182 122 -436q0 -302 -159 -481q-143 -160 -347 -159q-244 0 -384 205q-124 181 -124 435zM221 614q0 -216 62 -364q85 -208 271 -209t270 209q61 148 61 364t-61 365q-84 209 -270 210q-185 1 -271 -210 q-61 -150 -62 -365zM255 1359q46 193 205 195q55 1 130 -36l46 -23q58 -28 93 -28q79 0 111 96h56q-4 -51 -37 -106q-58 -97 -170 -98q-63 -1 -151 44l-45 23q-37 19 -73 20q-48 1 -77 -32q-13 -15 -29 -55h-59zM443 612l109 109l109 -109l-109 -108zM554 1256z" />
<glyph unicode="&#xf6;" horiz-adv-x="1111" d="M46 614q0 298 156 478q143 164 352 164q243 0 384 -206q122 -182 122 -436q0 -302 -159 -481q-143 -160 -347 -159q-244 0 -384 205q-124 181 -124 435zM221 614q0 -216 62 -364q85 -208 271 -209t270 209q61 148 61 364t-61 365q-84 209 -270 210q-185 1 -271 -210 q-61 -150 -62 -365zM253 1456q-1 40 27.5 68.5t68.5 28.5t68 -28.5t28 -68.5q0 -41 -28.5 -68.5t-67.5 -27.5q-41 0 -68 28t-28 68zM443 612l109 109l109 -109l-109 -108zM554 1256zM638 1456q0 40 28.5 68.5t67.5 28.5q40 0 68.5 -28.5t28.5 -68.5q0 -41 -28.5 -68.5 t-68.5 -27.5t-68 28.5t-28 67.5z" />
<glyph unicode="&#xf7;" horiz-adv-x="1062" d="M44 422v133h977v-133h-977zM427 141q0 44 31 74.5t75 30.5q43 0 74 -31t31 -74t-30.5 -74.5t-74.5 -31.5q-43 0 -74.5 31t-31.5 75zM427 837q-1 43 30.5 74t75.5 31q43 0 74 -31t31 -74q0 -44 -30.5 -74t-74.5 -31q-45 -1 -75 29.5t-31 75.5z" />
<glyph unicode="&#xf8;" d="M49 439q0 204 134 333q116 112 281 114q59 0 116 -12q35 -7 71 -21l115 218h76l-128 -247q79 -62 121 -123q74 -111 74 -265q1 -193 -114 -325q-121 -139 -311 -140q-54 0 -113 15q-36 9 -83 29l-121 -230h-72l139 266q-185 137 -185 388zM226 485q-1 -168 74 -311 l304 587q-68 68 -154 69q-73 1 -130 -50q-94 -85 -94 -295zM340 112q86 -86 173 -87q120 -1 177 123q43 93 43 229q1 118 -40 233q-26 72 -44 93z" />
<glyph unicode="&#xf9;" d="M-57 1200v33h431v-33q-88 -10 -112.5 -38.5t-24.5 -129.5v-223q-3 -288 50 -440q43 -122 83 -189q47 -80 131 -162q124 142 194 351q43 130 50 443v220q0 101 -24.5 129.5t-111.5 38.5v33h430v-33q-97 -12 -120 -52q-16 -27 -16 -138v-115q-14 -128 -31 -232 q-40 -249 -87 -337q-106 -200 -286 -338q-191 133 -302 338q-106 195 -118 557v127q0 111 -16 138q-23 40 -120 52zM112 1660q0 60 66 62q38 1 85 -46l284 -287h-78l-298 188q-59 37 -59 83z" />
<glyph unicode="&#xfa;" d="M-57 1200v33h431v-33q-88 -10 -112.5 -38.5t-24.5 -129.5v-223q-3 -288 50 -440q43 -122 83 -189q47 -80 131 -162q124 142 194 351q43 130 50 443v220q0 101 -24.5 129.5t-111.5 38.5v33h430v-33q-97 -12 -120 -52q-16 -27 -16 -138v-115q-14 -128 -31 -232 q-40 -249 -87 -337q-106 -200 -286 -338q-191 133 -302 338q-106 195 -118 557v127q0 111 -16 138q-23 40 -120 52zM461 1389l285 287q45 46 86 47q26 1 45 -18.5t20 -44.5q0 -44 -60 -83l-297 -188h-79z" />
<glyph unicode="&#xfb;" d="M-57 1200v33h431v-33q-88 -10 -112.5 -38.5t-24.5 -129.5v-223q-3 -288 50 -440q43 -122 83 -189q47 -80 131 -162q124 142 194 351q43 130 50 443v220q0 101 -24.5 129.5t-111.5 38.5v33h430v-33q-97 -12 -120 -52q-16 -27 -16 -138v-115q-14 -128 -31 -232 q-40 -249 -87 -337q-106 -200 -286 -338q-191 133 -302 338q-106 195 -118 557v127q0 111 -16 138q-23 40 -120 52zM182 1310l242 322h121l242 -322h-67l-235 199l-235 -199h-68z" />
<glyph unicode="&#xfc;" d="M-57 1200v33h431v-33q-88 -10 -112.5 -38.5t-24.5 -129.5v-223q-3 -288 50 -440q43 -122 83 -189q47 -80 131 -162q124 142 194 351q43 130 50 443v220q0 101 -24.5 129.5t-111.5 38.5v33h430v-33q-97 -12 -120 -52q-16 -27 -16 -138v-115q-14 -128 -31 -232 q-40 -249 -87 -337q-106 -200 -286 -338q-191 133 -302 338q-106 195 -118 557v127q0 111 -16 138q-23 40 -120 52zM185 1456q-1 40 27.5 68.5t68.5 28.5t68 -28.5t28 -68.5q0 -41 -28.5 -68.5t-67.5 -27.5q-41 0 -68 28t-28 68zM570 1456q0 40 28.5 68.5t67.5 28.5 q40 0 68.5 -28.5t28.5 -68.5q0 -41 -28.5 -68.5t-68.5 -27.5t-68 28.5t-28 67.5z" />
<glyph unicode="&#xfd;" d="M-67 1202v33h431v-33q-88 -10 -112.5 -38.5t-24.5 -84.5v-102q-3 -69 50 -221q34 -97 82 -151q65 -61 131 -124q59 63 117 126q47 58 77 149q43 130 50 224v99q0 56 -24.5 84.5t-111.5 38.5v33h430v-33q-91 -11 -113.5 -39.5t-22.5 -104.5v5q-14 -63 -30 -122 q-40 -139 -87 -227q-50 -95 -122 -149q-82 -58 -164 -114q-87 56 -174 110q-76 54 -129 153q-106 195 -117 337v7q0 77 -22.5 105t-113.5 39zM254 -20q107 8 134 45q22 30 22 145v342l84 248l70 -253l4 -359q1 -110 29.5 -135.5t130.5 -32.5v-33h-474v33zM462 1350l285 286 q45 46 86 47q26 1 45 -18.5t20 -44.5q0 -43 -60 -82l-297 -188h-79z" />
<glyph unicode="&#xfe;" d="M13 -390q75 9 104 35.5t29 103.5v1332q0 116 -95 119q-8 0 -15.5 -0.5t-13.5 -1.5v33q172 41 284 86l5 -4v-565q67 69 123 104q65 41 154 41q156 1 249 -130q83 -118 84 -280q0 -200 -109 -350q-113 -156 -292 -156q-56 0 -94 14q-60 21 -113 76v-309q0 -94 30.5 -116 t137.5 -30v-34h-468v32zM313 174q47 -127 188 -128q162 -1 223 178q31 92 32 223q1 127 -63 222q-73 108 -195 108q-67 0 -126 -43.5t-59 -84.5v-475z" />
<glyph unicode="&#xff;" d="M-67 1202v33h431v-33q-88 -10 -112.5 -38.5t-24.5 -84.5v-102q-3 -69 50 -221q34 -97 82 -151q65 -61 131 -124q59 63 117 126q47 58 77 149q43 130 50 224v99q0 56 -24.5 84.5t-111.5 38.5v33h430v-33q-91 -11 -113.5 -39.5t-22.5 -104.5v5q-14 -63 -30 -122 q-40 -139 -87 -227q-50 -95 -122 -149q-82 -58 -164 -114q-87 56 -174 110q-76 54 -129 153q-106 195 -117 337v7q0 77 -22.5 105t-113.5 39zM211 1445q-1 40 27 68t68 28t68.5 -28t28.5 -68q0 -41 -28.5 -68.5t-68.5 -27.5q-41 0 -67.5 27.5t-27.5 68.5zM254 -20 q107 8 134 45q22 30 22 145v342l84 248l70 -253l4 -359q1 -110 29.5 -135.5t130.5 -32.5v-33h-474v33zM595 1445q0 40 28.5 68t68.5 28t68 -28t28 -68q0 -41 -28 -68.5t-68 -27.5t-68.5 28t-28.5 68z" />
<glyph unicode="&#x152;" horiz-adv-x="1825" d="M58 767q0 373 194 598q149 172 416 172h1092l-93 -334h-49q17 153 -19.5 199t-237.5 46h-263q-42 0 -54 -19q-9 -13 -8 -59v-518h477l-89 -92h-388v-575q0 -70 35 -82t219 -12q207 0 293 55q95 60 165 246h54l-88 -392l-838 -8q-102 -2 -179 -1q-297 0 -457 197 q-182 225 -182 579zM277 767q0 -271 76 -455q107 -259 339 -261q18 0 41 3q53 13 73 33q32 32 32 164v1034q0 122 -31 161q-21 26 -71 36q-5 0 -22 2t-22 2q-232 0 -339 -262q-77 -188 -76 -457zM554 766l136 136l136 -136l-136 -137z" />
<glyph unicode="&#x153;" horiz-adv-x="1461" d="M46 614q0 298 156 478q120 138 333 138h873l-74 -268h-39q13 124 -16.5 160.5t-189.5 36.5h-210q-33 0 -43 -15q-8 -11 -7 -48v-415h382l-71 -73h-311v-460q0 -57 27.5 -65.5t175.5 -9.5q164 -1 234 43q77 47 133 198h43l-71 -314l-670 -6q-82 -2 -143 -2 q-238 0 -366 158q-146 180 -146 464zM221 614q0 -217 61 -364q86 -207 272 -209q61 -1 91 29q26 26 26 131v827q0 98 -26 129q-17 21 -56 28q-4 0 -17 2t-18 2q-185 0 -271 -210q-61 -150 -62 -365zM443 612l109 109l109 -109l-109 -108z" />
<glyph unicode="&#x178;" horiz-adv-x="1397" d="M31 1503v41h538v-41q-110 -13 -139 -48q-22 -25 -25 -31q-8 -19 -7 -74v-128q-4 -87 63 -277q43 -123 102 -189q82 -77 165 -155q73 79 144 158q59 72 98 186q55 164 63 280v125q0 56 -8 74q-3 7 -24 31q-29 34 -139 48v41h538v-41q-113 -14 -141.5 -50t-28.5 -131v7 q-17 -79 -38 -152q-50 -174 -109 -285q-63 -119 -152 -186q-102 -72 -205 -143q-109 70 -218 139q-95 67 -160 190q-132 243 -147 422v8q0 95 -28 131t-142 50zM412 1748q-1 40 27.5 68.5t68.5 28.5t68 -28.5t28 -68.5q0 -41 -28.5 -68.5t-67.5 -27.5q-41 0 -68 28t-28 68z M433 -25q133 9 167 56q27 39 28 182v427l104 310l88 -317l5 -448q2 -136 37 -168.5t162 -41.5v-41h-591v41zM797 1748q0 40 28 68.5t68 28.5t68.5 -28.5t28.5 -68.5q0 -41 -28.5 -68.5t-68.5 -27.5t-68 28.5t-28 67.5z" />
<glyph unicode="&#x2c6;" horiz-adv-x="644" d="M25 1582l242 322h120l242 -322h-67l-235 199l-235 -199h-67z" />
<glyph unicode="&#x2dc;" horiz-adv-x="644" d="M41 1586q46 193 205 195q55 1 129 -36l47 -23q58 -28 92 -28q79 0 112 96h55q-4 -51 -36 -106q-58 -97 -171 -98q-63 -1 -151 44l-44 23q-37 19 -74 20q-48 1 -76 -32q-13 -15 -30 -55h-58z" />
<glyph unicode="&#x2000;" horiz-adv-x="1007" />
<glyph unicode="&#x2001;" horiz-adv-x="2014" />
<glyph unicode="&#x2002;" horiz-adv-x="1007" />
<glyph unicode="&#x2003;" horiz-adv-x="2014" />
<glyph unicode="&#x2004;" horiz-adv-x="671" />
<glyph unicode="&#x2005;" horiz-adv-x="503" />
<glyph unicode="&#x2006;" horiz-adv-x="335" />
<glyph unicode="&#x2007;" horiz-adv-x="335" />
<glyph unicode="&#x2008;" horiz-adv-x="251" />
<glyph unicode="&#x2009;" horiz-adv-x="402" />
<glyph unicode="&#x200a;" horiz-adv-x="111" />
<glyph unicode="&#x2010;" horiz-adv-x="644" d="M76 376v121h475v-121h-475z" />
<glyph unicode="&#x2011;" horiz-adv-x="644" d="M76 376v121h475v-121h-475z" />
<glyph unicode="&#x2012;" horiz-adv-x="644" d="M76 376v121h475v-121h-475z" />
<glyph unicode="&#x2013;" d="M-5 389v94h972v-94h-972z" />
<glyph unicode="&#x2014;" horiz-adv-x="1935" d="M228 389v94h1474v-94h-1474z" />
<glyph unicode="&#x2018;" horiz-adv-x="644" d="M132 1223l227 323l-94 -238l94 -85l-113 -113z" />
<glyph unicode="&#x2019;" horiz-adv-x="644" d="M242 1142l94 226l-94 86l113 113l114 -113z" />
<glyph unicode="&#x201a;" horiz-adv-x="644" d="M181 104q-1 110 110 111q76 1 119 -56q39 -51 40 -129q1 -82 -70 -171q-68 -84 -148 -117l-17 38q156 96 158 203q0 13 -5.5 19.5t-18.5 7.5l-65 -6q-28 0 -54 14q-48 26 -49 86z" />
<glyph unicode="&#x201c;" horiz-adv-x="859" d="M53 1227l227 312l-95 -227l95 -85l-114 -114zM473 1227l226 312l-94 -227l94 -85l-113 -114z" />
<glyph unicode="&#x201d;" horiz-adv-x="859" d="M163 1142l94 226l-94 86l113 113l113 -113zM559 1130l95 227l-95 85l114 114l113 -114z" />
<glyph unicode="&#x201e;" horiz-adv-x="859" d="M67 89q-1 49 34 79q32 27 82 29q67 1 113 -52q42 -50 42 -119q1 -91 -52 -163q-68 -94 -166 -139l-17 38q159 100 159 207q0 9 -5 17q-3 5 -20 6q-31 -3 -66 -6q-103 0 -104 103zM510 86q0 110 117 111q70 1 114 -55q41 -51 41 -123q0 -90 -68 -176q-62 -79 -150 -119 l-18 38q157 89 160 210q0 18 -26 20q-31 -3 -66 -6q-43 0 -73.5 28.5t-30.5 71.5z" />
<glyph unicode="&#x2022;" horiz-adv-x="677" d="M58 643q-1 115 79.5 194.5t196.5 80.5q114 1 193.5 -79.5t79.5 -195.5t-79 -196t-194 -82q-116 -1 -195.5 80.5t-80.5 197.5z" />
<glyph unicode="&#x2026;" horiz-adv-x="1935" d="M215 85q0 46 30.5 77.5t76.5 32.5q43 1 75 -32.5t33 -77.5t-31 -75.5t-77 -32.5t-76 31t-31 77zM857 85q-1 44 32 76.5t78 33.5q44 1 75.5 -32.5t32.5 -77.5t-31.5 -76t-76.5 -32q-46 0 -77.5 31t-32.5 77zM1505 85q0 46 30.5 77.5t76.5 32.5q44 1 75.5 -32t32.5 -78 q1 -44 -31.5 -75.5t-76.5 -32.5q-45 -1 -76 31t-31 77z" />
<glyph unicode="&#x202f;" horiz-adv-x="402" />
<glyph unicode="&#x2039;" horiz-adv-x="644" d="M120 434q32 32 96 90l112 99q12 10 157 151q11 10 23 22q16 14 22 15q9 0 14.5 -6t6.5 -16q0 -26 -90 -149q-46 -57 -137 -172q-5 -6 -24 -29q78 -95 167 -219q80 -112 81 -129q0 -9 -5.5 -15.5t-14.5 -6.5q-10 0 -22 15q-9 9 -37 35l-3 3l-27 27l-211 193z" />
<glyph unicode="&#x203a;" horiz-adv-x="644" d="M80 790q0 8 6 14.5t14 6.5q6 0 20 -13q9 -6 46 -45q9 -9 344 -319l-6 -7l-12 -8l-89 -77l-211 -193q-26 -29 -79 -75l-11 -5q-20 0 -20 22q0 21 110 168q77 103 139 180q-151 191 -185 235q-65 88 -66 116z" />
<glyph unicode="&#x205f;" horiz-adv-x="503" />
<glyph unicode="&#x2122;" horiz-adv-x="1578" d="M76 1456l36 145h24q-4 -38 6 -50l20 -18q18 -28 102 -28l358 -1l-43 -158h-23q5 48 -22 82q-22 27 -102 27h-54v-580q0 -71 12 -89q15 -25 80 -30v-21h-283v21q62 8 78.5 25t16.5 80v594zM674 735v13q66 9 84 49q10 24 10 105v471q0 64 -17.5 84.5t-73.5 24.5v12h218 l204 -145l213 145h177v-12q-52 -4 -68.5 -25t-16.5 -84v-517q0 -60 14 -79q15 -22 71 -29v-13h-261v13q60 6 75 34q11 20 12 88v531l-194 -134v-651l-50 -108l1 758l-204 137v-501q0 -99 23 -128q16 -20 67 -26v-13h-284z" />
<glyph unicode="&#x25fc;" horiz-adv-x="1233" d="M0 0v1233h1233v-1233h-1233z" />
</font>
</defs>
</svg>
